<svg viewBox="0 0 3001.99 1360.19" xmlns="http://www.w3.org/2000/svg" xmlns:xlink="http://www.w3.org/1999/xlink"><clipPath id="a" transform="translate(497.06 -138.6)"><path d="m.17.98h1765.93v1496.02h-1765.93z" transform="matrix(-.99999945 -.0010472 .0010472 -.99999945 1765.45 1498.95)"/></clipPath><linearGradient id="b" gradientTransform="matrix(.99999986 .0005236 -.0005236 .99999986 -286.07 330.14)" gradientUnits="userSpaceOnUse" x1="2168.79" x2="425.53" y1="1308.82" y2="-451.29"><stop offset="0" stop-color="#8bffbb"/><stop offset=".34" stop-color="#62d0c8"/><stop offset="1" stop-color="#007ce4"/></linearGradient><linearGradient id="c" x1="1013.68" x2="973.28" xlink:href="#b" y1="122.69" y2="996.36"/><g clip-path="url(#a)"><path d="m-66.55 384.36c113.73-214.83 561.7-264.36 705.88-240.14 547.83 92.18 703.24 589.25 1205.22 605.83 218.91 7.23 485.75-50.65 619.87-355.95 36.6-83.31 40.51 1104.69 40.51 1104.69l-2589.1-2.86s-3.83-1070.99 17.62-1111.57z" fill="url(#b)" transform="translate(497.06 -138.6)"/><path d="m-492 1304.31c-.1 2.44 182.59 19.44 194.75 20.43 122.34 10 247.89 7 370.64-25.86 252.12-67.47 508.39-238.73 740.72-470.26 89.78-89.47 203.34-228.22 289.61-334 154.2-189.1 288.61-283.7 466.92-273.23 46.09 2.71 288.32 50.54 288.28 203.34l-.24 1072.7-2347.37-2.6s-16.39 47.59-3.31-190.52z" fill="url(#c)" opacity=".4" transform="translate(497.06 -138.6)"/></g></svg>