<svg viewBox="0 0 3002 621.87" xmlns="http://www.w3.org/2000/svg" xmlns:xlink="http://www.w3.org/1999/xlink"><clipPath id="a" transform="translate(739 1.47)"><path d="m0 0h1765.93v683.43h-1765.93z"/></clipPath><linearGradient id="b" gradientTransform="matrix(-1 0 0 -1 2052.01 352.71)" gradientUnits="userSpaceOnUse" x1="2057.76" x2="609.53" y1="684.11" y2="-778.12"><stop offset="0" stop-color="#8bffbb"/><stop offset=".34" stop-color="#62d0c8"/><stop offset="1" stop-color="#007ce4"/></linearGradient><linearGradient id="c" x1="988.83" x2="968.83" xlink:href="#b" y1="-136.22" y2="296.23"/><g clip-path="url(#a)"><path d="m1832.73 507.81c-113.68 98.19-561.63 121.07-705.81 110.06-547.86-41.87-703.38-268.87-1205.37-276.15-218.91-3.2-485.73 23.38-619.79 162.92-36.57 38.08-40.76-504.64-40.76-504.64h2589.1s4.11 489.26-17.37 507.81z" fill="url(#b)" transform="translate(739 1.47)"/><path d="m2258 87.33c.09-1.11-182.6-8.79-194.76-9.23-122.35-4.51-247.89-3.07-370.64 12-252.1 31-508.33 109.31-740.61 215.2-89.79 40.92-203.32 104.37-289.56 152.7-154.16 86.5-288.54 129.79-466.86 125.09-46.09-1.21-288.33-22.94-288.33-92.74v-490.05h2347.37s16.39-21.75 3.39 87.03z" fill="url(#c)" opacity=".4" transform="translate(739 1.47)"/></g></svg>