<svg viewBox="0 0 60 60" xmlns="http://www.w3.org/2000/svg"><circle cx="30" cy="30" fill="#ef9d4b" r="30"/><g fill="#fff"><path d="m40.37 35.29v-8.43c0-3.81 0-7.75 0-11.62a3.55 3.55 0 0 0 -1.14-2.91 3.05 3.05 0 0 0 -2.32-.9c-.44 0-.57-.07-.6-.44-.09-1-.79-1.53-2-1.55-2.86 0-5.79 0-8.73 0-1.17 0-1.87.57-2 1.53 0 .37-.15.46-.61.46a4.25 4.25 0 0 0 -2.17.77 3.63 3.63 0 0 0 -1.28 3v24.59 7.37.39a3.13 3.13 0 0 0 3.07 3h6.41 8.17a3.3 3.3 0 0 0 3.11-3.49c.08-3.91.09-7.91.09-11.77zm-2.64 2.84v7.64.31.68c0 .78-.08.87-.95.89s-1.57 0-2.34 0h-10.56c-.78 0-1.3 0-1.46-.16s-.16-.65-.16-1.4v-29.49c0-.12 0-.24 0-.36s0-.53 0-.79c.06-.72.37-1 1.13-1.08h.82a3.16 3.16 0 0 1 .43 0 1.8 1.8 0 0 0 1.19-.2 1.65 1.65 0 0 0 .42-1.17c0-.13 0-.26 0-.37s.09-.27.44-.28h4.31 2.09c.45 0 .58.07.62.6.09 1.3.28 1.39 1.54 1.42h.21c1.05-.07 1.64 0 1.93.29s.35.94.34 2z"/><path d="m33.26 41.91c-1.06 0-2.12 0-3.17 0-.95 0-1.89 0-2.83 0-1.3 0-1.38.14-1.33 1.46 0 .63.25.91.89.91h4 1.84c1.34 0 1.42 0 1.39-1.56-.05-.54-.22-.82-.79-.81z"/></g></svg>