<svg viewBox="0 0 60 60" xmlns="http://www.w3.org/2000/svg"><circle cx="30" cy="30" fill="#d2d2d2" r="30"/><g fill="#fff"><path d="m40.36 46.42c-.1-3.67-.08-7.41-.06-11 0-1.47 0-3 0-4.47v-4.46c0-3.62 0-7.37 0-11 0-2.6-1-3.87-3.15-3.87-.74 0-.85-.16-1-.79s-.5-1.22-1.85-1.24c-2.88 0-5.79 0-8.66 0-.95 0-1.95.5-1.95 1.39a2.72 2.72 0 0 1 0 .58 1.89 1.89 0 0 1 -.52 0h-.32c-2.13 0-3.21 1.29-3.21 3.83v31.15c0 2.63 1.3 3.91 4 3.91h4.06c2.82 0 5.73 0 8.59.06h.16a3.82 3.82 0 0 0 3.93-4.07zm-16.7 1.1c-1.33 0-1.34 0-1.34-1.35 0-3.66 0-7.38 0-11v-18.8a7.24 7.24 0 0 1 0-.81c.07-.8.3-1 1.08-1.11a6.49 6.49 0 0 1 .77 0h.56c1.21 0 1.39-.13 1.56-1.41.07-.51.23-.59.69-.59h5.83c.6 0 .76.06.84.76.14 1.1.68 1.29 1.46 1.24h.14c1.22.05 1.89.07 2.14.33s.26.92.26 2.11v28.8.8c0 .93-.12 1-1 1s-1.89 0-2.82 0h-10.17z"/><path d="m33 44.16c.68 0 1-.29 1-1s-.1-1.3-.89-1.32q-3.15-.08-6.28 0c-.79 0-.94.62-.94 1.3s.28 1 1 1h6.11z"/><path d="m32.82 37.82c-1.54 0-3.08 0-4.63 0a11.27 11.27 0 0 0 -1.16 0c-.87.09-1.12.4-1.1 1.3s.17 1 1.12 1 1.88 0 2.82 0 2.09 0 3.14 0c.86 0 1-.28 1-1.13s-.23-1.14-1.19-1.17z"/><path d="m33.12 33.84c-2.1 0-4.19 0-6.29 0-.79 0-.9.65-.9 1.31s.3 1 1 1h6.07c.7 0 1-.33 1-1s-.09-1.29-.88-1.31z"/><path d="m32.72 29.81c-1.82 0-3.64 0-5.46 0a2.44 2.44 0 0 0 -.66.08c-.67.21-.67.78-.67 1.34a.81.81 0 0 0 .9.93h6.29c.6 0 .88-.3.91-.91.06-1.04-.22-1.42-1.31-1.44z"/><path d="m26.9 28.15h3 3.14c.68 0 1-.3 1-1s-.1-1.31-.89-1.33q-3.15-.06-6.28 0c-.79 0-.94.61-.94 1.29s.27 1.05.97 1.04z"/><path d="m26.82 24.15h3.18 3s1.15-.3 1.09-1.22-.31-1.09-1.3-1.11c-1.82 0-3.64 0-5.46 0a2.43 2.43 0 0 0 -.66.07c-.68.21-.68.77-.68 1.34s.21.91.83.92z"/></g></svg>