<svg xmlns="http://www.w3.org/2000/svg" viewBox="0 0 34.89 39.83"><defs><style>.cls-1{fill:#0071b7;}</style></defs><g id="圖層_2" data-name="圖層 2"><g id="Layer_1" data-name="Layer 1"><path class="cls-1" d="M17.45,14.87H32.51c2.23,0,2.33.11,2.33,2.33q0,9.07,0,18.15c0,3.21-1.26,4.43-4.54,4.44-8.53,0-17.06-.08-25.58,0C2.08,39.87,0,38.39,0,35.17c.07-6,0-12,0-18,0-2.16.2-2.34,2.38-2.35ZM9.93,22.4C9.93,20,9.88,20,7.52,20s-2.42.2-2.41,2.49.19,2.33,2.37,2.33C9.87,24.79,9.93,24.73,9.93,22.4Zm9.91,0c0-2.35-.06-2.41-2.44-2.4-2.18,0-2.36.17-2.37,2.31,0,2.3.17,2.5,2.39,2.5S19.84,24.73,19.84,22.37ZM27.37,20c-2.27,0-2.44.17-2.43,2.46s.18,2.35,2.33,2.36c2.4,0,2.48-.06,2.48-2.35S29.7,20,27.37,20ZM7.49,29.88c-2.21,0-2.4.2-2.37,2.52,0,2.13.19,2.29,2.39,2.29,2.37,0,2.42,0,2.42-2.41S9.87,29.87,7.49,29.88Zm12.35,2.35c0-2.29-.08-2.37-2.49-2.35-2.14,0-2.32.19-2.32,2.36s.16,2.46,2.44,2.45S19.85,34.63,19.84,32.23Zm9.91,0c0-2.26-.09-2.33-2.52-2.31-2.12,0-2.29.19-2.29,2.4s.16,2.42,2.48,2.41S29.77,34.62,29.75,32.19Z"/><path class="cls-1" d="M17.52,12.53H2.45C.18,12.52,0,12.36,0,10A9.31,9.31,0,0,1,.19,8,3.72,3.72,0,0,1,3.66,5c.41,0,.83,0,1.24,0,2.67,0,2.54.24,2.56-2.59C7.47.2,7.66,0,9.81,0l1.45,0a1.18,1.18,0,0,1,1.27,1.3c0,.41,0,.83,0,1.24,0,2.71,0,2.38,2.52,2.4,1.92,0,3.85,0,5.78,0,1,0,1.54-.32,1.48-1.41a20.24,20.24,0,0,1,0-2.06A1.37,1.37,0,0,1,23.91,0h.2c3.36,0,3.35-.12,3.31,3,0,1.91,0,2,1.94,1.91,4.38-.29,5.78,1.51,5.5,5.61-.12,1.81-.21,2-2.07,2C27.7,12.54,22.61,12.53,17.52,12.53Z"/></g></g></svg>