<svg viewBox="0 0 34.89 39.57" xmlns="http://www.w3.org/2000/svg"><g fill="#0071b7"><path d="m23.09.5h-11.29v2.82h11.29zm7.59 11.06 2.68-2.67a20.89 20.89 0 0 0 -2.66-2.66l-2.7 2.68a16.94 16.94 0 1 0 2.65 2.65zm-13.23 23.74a13.18 13.18 0 1 1 13.18-13.18 13.17 13.17 0 0 1 -13.18 13.18z"/><path d="m17.45 39.57a17.45 17.45 0 1 1 0-34.89 17.27 17.27 0 0 1 10.55 3.56l2.36-2.36a.48.48 0 0 1 .67 0 21.71 21.71 0 0 1 2.72 2.71.51.51 0 0 1 0 .68l-2.4 2.33a17.26 17.26 0 0 1 3.54 10.52 17.47 17.47 0 0 1 -17.44 17.45zm0-33.89a16.45 16.45 0 1 0 16.44 16.44 16.26 16.26 0 0 0 -3.6-10.25.49.49 0 0 1 0-.66l2.34-2.35a19.86 19.86 0 0 0 -1.94-1.95l-2.31 2.35a.52.52 0 0 1 -.67 0 16.22 16.22 0 0 0 -10.26-3.58zm0 30.12a13.68 13.68 0 1 1 13.68-13.68 13.69 13.69 0 0 1 -13.68 13.68zm0-26.36a12.68 12.68 0 1 0 12.68 12.68 12.69 12.69 0 0 0 -12.68-12.68zm5.64-5.62h-11.29a.5.5 0 0 1 -.5-.5v-2.82a.5.5 0 0 1 .5-.5h11.29a.5.5 0 0 1 .5.5v2.82a.5.5 0 0 1 -.5.5zm-10.79-1h10.29v-1.82h-10.29z"/><path d="m16.54 23.45a1.23 1.23 0 0 0 1.72 0l4.88-5a1.22 1.22 0 0 0 0-1.72 1.23 1.23 0 0 0 -1.72 0l-4.88 5a1.22 1.22 0 0 0 0 1.72z"/><path d="m17.39 24.29a1.7 1.7 0 0 1 -1.2-.49 1.7 1.7 0 0 1 0-2.42l4.88-5a1.71 1.71 0 1 1 2.46 2.39l-4.88 5a1.72 1.72 0 0 1 -1.21.52zm4.88-7.46a.7.7 0 0 0 -.52.22l-4.88 5a.72.72 0 0 0 0 1 .85.85 0 0 0 .51.2.68.68 0 0 0 .5-.22l4.88-5a.71.71 0 0 0 0-1 .74.74 0 0 0 -.49-.2z"/></g></svg>