<svg viewBox="0 0 605.24 100" xmlns="http://www.w3.org/2000/svg"><path d="m555.72 0h-506.2c-27.35 0-49.52 20.15-49.52 45v10c0 24.85 22.17 45 49.52 45h506.2c27.35 0 49.52-20.15 49.52-45v-10c0-24.85-22.17-45-49.52-45z" fill="#ededed"/><g fill="#0071b7" stroke="#0071b7" stroke-miterlimit="10"><path d="m257.25 51.54 2.84.72a9.61 9.61 0 0 1 -3.22 5.34 8.87 8.87 0 0 1 -5.67 1.84 10.22 10.22 0 0 1 -5.65-1.44 8.86 8.86 0 0 1 -3.31-4.09 14.58 14.58 0 0 1 -1.13-5.76 12.55 12.55 0 0 1 1.28-5.85 8.77 8.77 0 0 1 3.65-3.8 10.66 10.66 0 0 1 5.2-1.29 8.81 8.81 0 0 1 5.42 1.64 8.44 8.44 0 0 1 3.06 4.61l-2.79.66a6.62 6.62 0 0 0 -2.17-3.41 5.81 5.81 0 0 0 -3.58-1.07 7 7 0 0 0 -4.18 1.21 6.3 6.3 0 0 0 -2.29 3.15 12.85 12.85 0 0 0 -.67 4.13 13.16 13.16 0 0 0 .79 4.78 6 6 0 0 0 2.49 3.09 6.89 6.89 0 0 0 3.68 1 6.17 6.17 0 0 0 4-1.37 7.07 7.07 0 0 0 2.25-4.09z"/><path d="m265.27 51.29q0-4.32 2.4-6.4a7.26 7.26 0 0 1 4.9-1.73 7 7 0 0 1 5.24 2.1 8 8 0 0 1 2 5.81 10.34 10.34 0 0 1 -.9 4.73 6.48 6.48 0 0 1 -2.62 2.67 7.72 7.72 0 0 1 -3.76 1 7 7 0 0 1 -5.28-2.09 8.35 8.35 0 0 1 -1.98-6.09zm2.71 0a6.64 6.64 0 0 0 1.31 4.48 4.34 4.34 0 0 0 6.54 0 6.8 6.8 0 0 0 1.31-4.56 6.45 6.45 0 0 0 -1.31-4.37 4.34 4.34 0 0 0 -6.54 0 6.61 6.61 0 0 0 -1.29 4.45z"/><path d="m285.94 59.07v-15.56h2.37v2.21a5.6 5.6 0 0 1 4.95-2.56 6.47 6.47 0 0 1 2.59.51 4.07 4.07 0 0 1 1.76 1.33 5 5 0 0 1 .82 1.95 14.72 14.72 0 0 1 .15 2.56v9.57h-2.64v-9.47a7.24 7.24 0 0 0 -.3-2.41 2.57 2.57 0 0 0 -1.1-1.28 3.51 3.51 0 0 0 -1.83-.47 4.22 4.22 0 0 0 -2.91 1.07c-.82.71-1.22 2.06-1.22 4v8.5z"/><path d="m306.25 59.07v-13.51h-2.33v-2.05h2.33v-1.65a7.39 7.39 0 0 1 .28-2.33 3.35 3.35 0 0 1 1.34-1.66 4.8 4.8 0 0 1 2.69-.64 13.39 13.39 0 0 1 2.46.26l-.4 2.3a8.5 8.5 0 0 0 -1.55-.14 2.33 2.33 0 0 0 -1.7.51 2.78 2.78 0 0 0 -.5 1.92v1.43h3v2.05h-3v13.51z"/><path d="m317 40.63v-3h2.64v3zm0 18.44v-15.56h2.64v15.56z"/><path d="m326.59 59.07v-15.56h2.41v2.36a6.41 6.41 0 0 1 1.67-2.18 3 3 0 0 1 1.7-.53 5.14 5.14 0 0 1 2.71.85l-.91 2.45a3.8 3.8 0 0 0 -1.94-.57 2.5 2.5 0 0 0 -1.55.52 2.78 2.78 0 0 0 -1 1.44 10.35 10.35 0 0 0 -.44 3.07v8.15z"/><path d="m339.61 59.07v-15.56h2.39v2.19a5.47 5.47 0 0 1 1.95-1.84 5.41 5.41 0 0 1 2.77-.7 5.08 5.08 0 0 1 2.83.72 3.83 3.83 0 0 1 1.56 2 5.58 5.58 0 0 1 4.81-2.73 4.76 4.76 0 0 1 3.56 1.28 5.49 5.49 0 0 1 1.24 4v10.64h-2.62v-9.8a7.24 7.24 0 0 0 -.26-2.28 2.2 2.2 0 0 0 -.93-1.12 2.91 2.91 0 0 0 -1.58-.42 3.66 3.66 0 0 0 -2.72 1.09 4.77 4.77 0 0 0 -1.12 3.46v9h-2.63v-10a4.41 4.41 0 0 0 -.65-2.63 2.43 2.43 0 0 0 -2.11-.88 3.84 3.84 0 0 0 -2.1.51 3.34 3.34 0 0 0 -1.37 1.72 9.71 9.71 0 0 0 -.42 3.25v8.07z"/></g></svg>