<svg viewBox="0 0 34.89 39.83" xmlns="http://www.w3.org/2000/svg"><g fill="#0071b7"><path d="m17.45 14.87h15.06c2.23 0 2.33.11 2.33 2.33q0 9.07 0 18.15c0 3.21-1.26 4.43-4.54 4.44-8.53 0-17.06-.08-25.58 0-2.64.08-4.72-1.4-4.72-4.62.07-6 0-12 0-18 0-2.16.2-2.34 2.38-2.35zm-7.52 7.53c0-2.4-.05-2.4-2.41-2.4s-2.42.2-2.41 2.49.19 2.33 2.37 2.33c2.39-.03 2.45-.09 2.45-2.42zm9.91 0c0-2.35-.06-2.41-2.44-2.4-2.18 0-2.36.17-2.37 2.31 0 2.3.17 2.5 2.39 2.5s2.42-.08 2.42-2.44zm7.53-2.4c-2.27 0-2.44.17-2.43 2.46s.18 2.35 2.33 2.36c2.4 0 2.48-.06 2.48-2.35s-.05-2.47-2.38-2.47zm-19.88 9.88c-2.21 0-2.4.2-2.37 2.52 0 2.13.19 2.29 2.39 2.29 2.37 0 2.42 0 2.42-2.41s-.06-2.41-2.44-2.4zm12.35 2.35c0-2.29-.08-2.37-2.49-2.35-2.14 0-2.32.19-2.32 2.36s.16 2.46 2.44 2.45 2.38-.06 2.37-2.46zm9.91 0c0-2.26-.09-2.33-2.52-2.31-2.12 0-2.29.19-2.29 2.4s.16 2.42 2.48 2.41 2.35-.11 2.33-2.54z"/><path d="m17.52 12.53h-15.07c-2.27-.01-2.45-.17-2.45-2.53a9.31 9.31 0 0 1 .19-2 3.72 3.72 0 0 1 3.47-3h1.24c2.67 0 2.54.24 2.56-2.59.01-2.21.2-2.41 2.35-2.41h1.45a1.18 1.18 0 0 1 1.27 1.3v1.24c0 2.71 0 2.38 2.52 2.4h5.78c1 0 1.54-.32 1.48-1.41a20.24 20.24 0 0 1 0-2.06 1.37 1.37 0 0 1 1.6-1.47h.2c3.36 0 3.35-.12 3.31 3 0 1.91 0 2 1.94 1.91 4.38-.29 5.78 1.51 5.5 5.61-.12 1.81-.21 2-2.07 2-5.09.02-10.18.01-15.27.01z"/></g></svg>