<svg viewBox="0 0 550.09 92.4" xmlns="http://www.w3.org/2000/svg"><path d="m504.33.91h-458.56c-24.77 0-44.86 18.25-44.86 40.76v9.06c0 22.51 20.09 40.77 44.86 40.77h458.56c24.77 0 44.86-18.26 44.86-40.77v-9.06c0-22.51-20.09-40.76-44.86-40.76z" fill="#fff"/><path d="m504.33 92.4h-458.56c-25.24 0-45.77-18.69-45.77-41.67v-9.06c0-22.98 20.53-41.67 45.77-41.67h458.56c25.23 0 45.76 18.69 45.76 41.67v9.06c0 22.98-20.53 41.67-45.76 41.67zm-458.56-90.59c-24.24 0-44 17.88-44 39.86v9.06c0 22 19.72 39.86 44 39.86h458.56c24.24 0 43.95-17.88 43.95-39.86v-9.06c0-22-19.71-39.86-43.95-39.86z" fill="#0e6bab"/><text fill="#2672ba" font-family="Arial-BoldMT, Arial" font-size="26" font-weight="700" letter-spacing=".01em" transform="translate(125.5 52.46)">Deactivate Smart Fence</text></svg>