<svg viewBox="0 0 59.9 60" xmlns="http://www.w3.org/2000/svg"><path d="m59.9 30a30 30 0 1 1 -29.9-30 30 30 0 0 1 29.9 30z" fill="#03a9ea"/><path d="m18.64 25.72a.93.93 0 0 0 1.07-1 1.15 1.15 0 0 0 -.3-.85 1 1 0 0 0 -.77-.31 1.1 1.1 0 0 0 -.78.31 1.14 1.14 0 0 0 -.32.82 1 1 0 0 0 1.1 1.03z" fill="none"/><path d="m52.6 49-4-2.29-3.09-1.71-.51-.33-4.75-2.73a1.24 1.24 0 0 1 -.66-.91 1 1 0 0 1 .35-.83 1.69 1.69 0 0 1 .39-.22l.16-.08h.09.09l.2.08c.15.06.29.11.43.18l3.09 1.77 6.35 3.65 2.85 1.64.16.09.48.28a29.89 29.89 0 0 0 4.72-10 1.24 1.24 0 0 1 -.59-.17l-1.7-1-7.93-4.54a1.9 1.9 0 0 1 -.39-.28 1 1 0 0 1 .24-1.6 2.4 2.4 0 0 1 .5-.18l7.59-2a2.6 2.6 0 0 1 2.17.36l.33.22.35.23a1.29 1.29 0 0 1 .35.35c0-1-.12-1.94-.25-2.9a1 1 0 0 1 -1 .3l-.43-.09c-.32-.06-.64-.12-1-.2a3.09 3.09 0 0 0 -1.51.08c-3.09.67-6.11 1.37-8.66 1.95a7.7 7.7 0 0 1 -5.4-.65c-2.19-1.11-4.46-2.29-6.47-3.33l-1.61-.84a4 4 0 0 0 -1.54-.5 3.76 3.76 0 0 0 -3.7 1.92c-.44.71-.86 1.45-1.27 2.17l-.44.77c0 .07-.1.17-.12.22l.2.13.66.38.77.45a1.55 1.55 0 0 1 .4.3 1 1 0 0 1 .13 1.2 1 1 0 0 1 -1.22.44 5.55 5.55 0 0 1 -.6-.29l-.81-.49c-.43-.25-.88-.52-1.33-.76a1 1 0 0 0 -.53-.15.37.37 0 0 0 -.39.33c-.06.31 0 .48.19.6l1.45.85.36.21 1.55.92a1 1 0 0 1 .54.71 1.05 1.05 0 0 1 -.37 1 1.14 1.14 0 0 1 -.63.2 1.19 1.19 0 0 1 -.61-.18l-1.73-1-.13-.07-.8-.47-.25-.14a3.12 3.12 0 0 1 -.35-.2 2.59 2.59 0 0 1 -1.34-2.08 2.62 2.62 0 0 1 2.53-2.78.52.52 0 0 0 .55-.32c.67-1.22 1.25-2.22 1.81-3.14a6 6 0 0 1 7.9-2.18l4.79 2.45 1.25.65c.8.42 1.62.85 2.44 1.25a5.48 5.48 0 0 0 3.67.35l3.43-.72h.08l5.19-1.16a7.18 7.18 0 0 1 3.67.16 1.8 1.8 0 0 1 .4.15 29.95 29.95 0 1 0 -6.34 24.76zm-30.3-14.76a4.06 4.06 0 0 1 -2.22 1.34 4.58 4.58 0 0 1 -.9.09 4.09 4.09 0 0 1 -4.09-4.27 4 4 0 0 1 2.36-3.53c.17-.08.26-.11.27-.21s.06-.42-.21-.57a2.66 2.66 0 0 1 -1.51-2.25 2.53 2.53 0 0 1 1.36-2.46c.23-.13.28-.21.27-.45 0-.47 0-.93 0-1.39 0-.21 0-.42 0-.63v-.15h-.17c-1.24 0-2.48 0-3.71.07q-1.23 0-2.46 0c-.62 0-1.82.09-2-.54a1.32 1.32 0 0 1 .2-1.23 1.12 1.12 0 0 1 .8-.21h6.15 2.43c1.18 0 1.13-1.62.19-1.62h-2.27-6.31c-.45 0-.68 0-1-.15a1 1 0 0 1 .09-1.49 2.94 2.94 0 0 1 1.15-.13h2.36 2 4.07a2.64 2.64 0 0 1 2 .78 3.22 3.22 0 0 1 .54 2.8 2.19 2.19 0 0 1 -1.82 1.75h-.08a.41.41 0 0 0 0 .11v2.26c0 .13 0 .18.17.26a2.64 2.64 0 0 1 .04 4.58c-.17.1-.19.16-.19.31a8.42 8.42 0 0 1 0 .87v.27a1.14 1.14 0 0 1 -1 1.29 1.8 1.8 0 0 0 -1.39 1.26 1.83 1.83 0 0 0 .82 2.13 1.91 1.91 0 0 0 2.18-.13l.08-.07a2.08 2.08 0 0 1 .21-.21 1.07 1.07 0 0 1 1.49 0 1.08 1.08 0 0 1 .1 1.52zm12 7.66a5.91 5.91 0 0 1 -4.21-1.71 6 6 0 0 1 -1.74-4.31 6 6 0 0 1 10.17-4.2 5.81 5.81 0 0 1 1.74 4.25 5.87 5.87 0 0 1 -6 6z" fill="none"/><path d="m34.31 31.82a4.18 4.18 0 0 0 -2.94 1.18 4 4 0 0 0 -1.19 2.89 4.09 4.09 0 0 0 4.13 4.11 4.13 4.13 0 0 0 4.1-4 4 4 0 0 0 -1.18-2.88 4.2 4.2 0 0 0 -2.92-1.3zm1.69 5.75a2.28 2.28 0 0 1 -1.67.68 2.28 2.28 0 0 1 -1.67-.7 2.44 2.44 0 0 1 -.63-1.63 2.26 2.26 0 0 1 .67-1.62 2.33 2.33 0 0 1 3.36.05 2.19 2.19 0 0 1 .6 1.58 2.3 2.3 0 0 1 -.66 1.64z" fill="none"/><path d="m59.54 30.37a1 1 0 0 1 -.93.07 4.67 4.67 0 0 1 -.72-.42l-.1-.07a.84.84 0 0 0 -.75-.12l-3.79 1h-.16l-1.19.32h-.14l.91.54 1.61.92c1.66.95 3.38 1.94 5.1 2.89a30 30 0 0 0 .52-5.56v-.12a1 1 0 0 1 -.36.55z" fill="none"/><path d="m34.4 35.05h-.11a.75.75 0 0 0 -.5.18 1 1 0 0 0 -.33.71.77.77 0 0 0 .22.58.92.92 0 0 0 .68.31.91.91 0 0 0 .92-.89.88.88 0 0 0 -.31-.67.75.75 0 0 0 -.57-.22z" fill="none"/><g fill="#fff"><path d="m20.71 32.69a2.08 2.08 0 0 0 -.21.21l-.08.07a1.91 1.91 0 0 1 -2.18.19 1.83 1.83 0 0 1 -.82-2.16 1.8 1.8 0 0 1 1.39-1.29 1.14 1.14 0 0 0 1-1.29c0-.09 0-.18 0-.27a8.42 8.42 0 0 0 0-.87c0-.15 0-.21.19-.31a2.64 2.64 0 0 0 0-4.63c-.15-.08-.17-.13-.17-.26 0-.83 0-1.65 0-2.26a.41.41 0 0 1 0-.11h.08a2.19 2.19 0 0 0 1.81-1.71 3.22 3.22 0 0 0 -.54-2.8 2.64 2.64 0 0 0 -2-.78c-1.35.06-2.73 0-4.07 0h-2-2.36a2.94 2.94 0 0 0 -1.15.13 1 1 0 0 0 -.09 1.49c.27.18.5.13 1 .15h6.29 2.27c.94 0 1 1.62-.19 1.62h-2.43-6.15a1.12 1.12 0 0 0 -.8.21 1.32 1.32 0 0 0 -.2 1.23c.15.63 1.35.54 2 .54q1.23 0 2.46 0c1.23 0 2.47-.08 3.71-.07h.17v.15.63 1.39c0 .24 0 .32-.27.45a2.53 2.53 0 0 0 -1.37 2.5 2.66 2.66 0 0 0 1.52 2.25c.27.15.25.33.21.57s-.1.13-.27.21a4 4 0 0 0 -2.36 3.53 4.09 4.09 0 0 0 4.09 4.27 4.58 4.58 0 0 0 .9-.09 4.06 4.06 0 0 0 2.22-1.34 1.08 1.08 0 0 0 -.1-1.54 1.07 1.07 0 0 0 -1.5-.01zm-3.17-8a1.14 1.14 0 0 1 .32-.82 1.1 1.1 0 0 1 .78-.31 1 1 0 0 1 .77.31 1.15 1.15 0 0 1 .3.85.93.93 0 0 1 -1.07 1 1 1 0 0 1 -1.1-1.03z"/><path d="m59 24.31a7.18 7.18 0 0 0 -3.67-.16l-5.19 1.16h-.08l-3.44.78a5.48 5.48 0 0 1 -3.67-.35c-.82-.4-1.64-.83-2.44-1.25l-1.25-.65-4.79-2.45a6 6 0 0 0 -7.9 2.18c-.56.92-1.14 1.92-1.81 3.14a.52.52 0 0 1 -.55.32 2.62 2.62 0 0 0 -2.53 2.78 2.59 2.59 0 0 0 1.32 2.1 3.12 3.12 0 0 0 .35.2l.25.14.8.47.13.07 1.73 1a1.19 1.19 0 0 0 .61.18 1.14 1.14 0 0 0 .63-.2 1.05 1.05 0 0 0 .37-1 1 1 0 0 0 -.57-.77l-1.56-.91-.36-.21-1.45-.85c-.19-.12-.25-.29-.19-.6a.37.37 0 0 1 .39-.33 1 1 0 0 1 .53.15c.45.24.9.51 1.33.76l.78.46a5.55 5.55 0 0 0 .6.29 1 1 0 0 0 1.22-.44 1 1 0 0 0 -.13-1.2 1.55 1.55 0 0 0 -.4-.3l-.77-.45-.67-.37-.2-.13c0-.05.08-.15.12-.22l.46-.75c.41-.72.83-1.46 1.27-2.17a3.76 3.76 0 0 1 3.73-1.93 4 4 0 0 1 1.63.5l1.61.84c2 1 4.28 2.22 6.47 3.33a7.7 7.7 0 0 0 5.4.65c2.55-.58 5.57-1.28 8.66-1.95a3.09 3.09 0 0 1 1.51-.08c.32.08.64.14 1 .2l.43.09a1 1 0 0 0 1-.3c-.07-.53-.15-1.07-.25-1.6a1.8 1.8 0 0 0 -.46-.17z"/><path d="m38.5 31.68a6 6 0 0 0 -10.17 4.2 6 6 0 0 0 1.74 4.31 5.91 5.91 0 0 0 4.21 1.71 5.87 5.87 0 0 0 6-6 5.81 5.81 0 0 0 -1.78-4.22zm-1.32 7.17a4.1 4.1 0 0 1 -2.84 1.15 4.09 4.09 0 0 1 -4.13-4.11 4 4 0 0 1 1.16-2.89 4.18 4.18 0 0 1 2.92-1.22 4.2 4.2 0 0 1 2.92 1.25 4 4 0 0 1 1.2 2.97 4.1 4.1 0 0 1 -1.23 2.85z"/><path d="m59.53 28.63-.35-.23-.33-.22a2.6 2.6 0 0 0 -2.17-.36l-7.59 2a2.4 2.4 0 0 0 -.5.18 1 1 0 0 0 -.24 1.64 1.9 1.9 0 0 0 .39.28l7.93 4.54 1.7 1a1.24 1.24 0 0 0 .59.17c.16-.65.31-1.32.43-2-1.72-1-3.44-1.94-5.1-2.89l-1.61-.92-.91-.54h.14l1.19-.32h.16l3.79-1a.84.84 0 0 1 .75.12l.1.07a4.67 4.67 0 0 0 .72.42 1 1 0 0 0 .93-.07 1 1 0 0 0 .36-.44c0-.32 0-.64 0-.95a1.29 1.29 0 0 0 -.38-.48z"/><path d="m53.59 47.22-2.85-1.64-6.35-3.65-3.09-1.77c-.14-.07-.28-.12-.43-.18l-.2-.08h-.09-.09l-.16.08a1.69 1.69 0 0 0 -.39.22 1 1 0 0 0 -.35.83 1.24 1.24 0 0 0 .66.91l4.75 2.73.51.29 3.11 1.79 4 2.29.35.2c.44-.54.87-1.09 1.28-1.65l-.48-.28z"/><path d="m34.37 33.61a2.29 2.29 0 0 0 -1.65.69 2.26 2.26 0 0 0 -.67 1.62 2.44 2.44 0 0 0 .63 1.63 2.28 2.28 0 0 0 1.67.7 2.26 2.26 0 0 0 2.31-2.32 2.19 2.19 0 0 0 -.6-1.58 2.31 2.31 0 0 0 -1.69-.74zm0 3.22a.92.92 0 0 1 -.68-.31.77.77 0 0 1 -.22-.58 1 1 0 0 1 .33-.71.75.75 0 0 1 .5-.18h.11a.75.75 0 0 1 .57.22.88.88 0 0 1 .31.67.91.91 0 0 1 -.93.89z"/></g></svg>