<svg viewBox="0 0 60 60" xmlns="http://www.w3.org/2000/svg"><path d="m60 30a30 30 0 1 1 -30-30 30 30 0 0 1 30 30z" fill="#7fdb5d"/><path d="m29.8 50.06a20.06 20.06 0 0 1 .29-40.12 19.89 19.89 0 0 1 19.98 20.06c-.07 11.53-9.23 19.94-20.27 20.06zm0-25.42c1.07 0 2.14.05 3.21.12a5.87 5.87 0 0 1 4.99 2.86c1.62 2.72 1.12 2.07 4.36 2.27.85.06 1.7 0 2.56 0 2.33 0 2.54-.27 2.14-2.63 0-.14-.07-.27-.1-.41a17.2 17.2 0 0 0 -28.29-9.77 16.1 16.1 0 0 0 -5.67 11.13c-.1 1.17.31 1.62 1.55 1.68 1.63.08 3.28 0 4.91 0s1.62-.36 2.09-1.36a6.21 6.21 0 0 1 5.94-3.78c.75-.01 1.51-.11 2.31-.11zm-16.44 8.36c-.67.66.6 3.17.79 3.64a17.88 17.88 0 0 0 2.66 4.36 16.87 16.87 0 0 0 10.1 5.91c.77.15 1.69.31 1.71-.92.05-1.91.07-3.84 0-5.75a2.58 2.58 0 0 0 -.78-1.44c-1.73-1.8-3.48-3.56-5.29-5.28a2.82 2.82 0 0 0 -1.63-.83c-1.27 0-2.54 0-3.81 0-.69-.05-3.3-.13-3.75.31zm29-.38c-5 .1-3.22-.62-6.82 2.84l-.45.46c-3.83 3.82-3.83 3.82-3.65 9.27.06 1.8.29 2 2 1.64a16.36 16.36 0 0 0 10.36-6.66 23.44 23.44 0 0 0 2.62-5.34c.7-1.84.4-2.14-1.51-2.18-.85-.02-1.71-.01-2.56-.01zm-12.36-5.1c-.86 0-1.71 0-2.56 0a3.86 3.86 0 0 0 -3.07 1.64 1.5 1.5 0 0 0 .09 2.26c1.57 1.53 3.11 3.1 4.65 4.68a1.07 1.07 0 0 0 1.79 0c1.48-1.53 3-3 4.49-4.54a1.65 1.65 0 0 0 0-2.44 4 4 0 0 0 -2.68-1.43 18.24 18.24 0 0 0 -2.71-.17z" fill="#fff"/></svg>