<svg viewBox="0 0 60 60" xmlns="http://www.w3.org/2000/svg"><path d="m30 19.09a10.91 10.91 0 1 0 10.91 10.91 10.9 10.9 0 0 0 -10.91-10.91zm27.27 8.18h-2.89a24.52 24.52 0 0 0 -21.65-21.65v-2.89a2.73 2.73 0 1 0 -5.46 0v2.89a24.52 24.52 0 0 0 -21.65 21.65h-2.89a2.73 2.73 0 1 0 0 5.46h2.89a24.52 24.52 0 0 0 21.65 21.65v2.89a2.73 2.73 0 1 0 5.46 0v-2.89a24.52 24.52 0 0 0 21.65-21.65h2.89a2.73 2.73 0 0 0 0-5.46zm-27.27 21.82a19.09 19.09 0 1 1 19.09-19.09 19.07 19.07 0 0 1 -19.09 19.09z" fill="#949494"/></svg>