<svg viewBox="0 0 42.77 60" xmlns="http://www.w3.org/2000/svg"><path d="m21.39 10.39a11.1 11.1 0 1 0 11.09 11.1 11.1 11.1 0 0 0 -11.09-11.1z" fill="none"/><g fill="#949494"><path d="m42.64 19.23a19.83 19.83 0 0 0 -.39-2.43 20.83 20.83 0 0 0 -2.38-6.13 21.39 21.39 0 0 0 -10.18-9 21.67 21.67 0 0 0 -9.25-1.67 22.5 22.5 0 0 0 -3.16.37 21.31 21.31 0 0 0 -4.87 1.63 21.51 21.51 0 0 0 -7.88 6.21 21.38 21.38 0 0 0 -4.53 11.99 20.43 20.43 0 0 0 .1 3.41 19.51 19.51 0 0 0 .4 2.27 20.47 20.47 0 0 0 2.27 5.74 25.5 25.5 0 0 0 3.75 4.95 35 35 0 0 0 3.31 3c1.47 1.18 3 2.24 4.6 3.27a8.66 8.66 0 0 1 1.42 1.07 8.76 8.76 0 0 1 1.08 1.35 22 22 0 0 1 2.28 4.83c.12.34.21.69.34 1a1.94 1.94 0 0 0 2.33 1.21 2 2 0 0 0 1.4-1.42c.19-.58.37-1.15.59-1.72a18.7 18.7 0 0 1 1.95-3.93 6.53 6.53 0 0 1 1.45-1.69c.44-.34.92-.65 1.39-1a49 49 0 0 0 5.28-3.91 29.29 29.29 0 0 0 4.06-4.15 23.11 23.11 0 0 0 3.1-5.16 19.34 19.34 0 0 0 1.43-5.27c.11-.88.15-1.77.21-2.54s-.04-1.51-.1-2.28zm-21.25 13.36a11.1 11.1 0 1 1 11.09-11.1 11.1 11.1 0 0 1 -11.09 11.1z"/><path d="m31.23 44a1.75 1.75 0 0 0 -.91 3.37c4.33 1.17 6.3 2.92 6.3 4 0 2.09-5.94 5.14-15.23 5.14s-15.23-3-15.23-5.14c0-1.08 1.85-2.77 5.91-3.94a1.75 1.75 0 0 0 -1-3.36c-5.37 1.54-8.45 4.2-8.45 7.3.04 5.63 9.69 8.63 18.77 8.63s18.72-3 18.72-8.63c0-3.19-3.24-5.9-8.88-7.37z"/></g></svg>