<svg viewBox="0 0 60 60" xmlns="http://www.w3.org/2000/svg"><circle cx="30" cy="30" fill="#d2d2d2" r="30"/><g fill="#fff"><path d="m29.82 13.43c4.87 0 9.74.11 14.6 0a5.53 5.53 0 0 1 5.84 5.86q0 10.53 0 21.06c0 3.26-2.21 6-5.87 5.83-2.91-.15-5.84 0-8.75-.06a4.8 4.8 0 0 0 -3.26 1.06c-2.31 1.78-7.39 5.65-7.62 5.8-.58.34-1.34.88-1.86.42a2.58 2.58 0 0 1 -.58-1.65c-.08-1.45-.05-2.91 0-4.37 0-.88-.3-1.26-1.21-1.24-1.94 0-3.89 0-5.84 0a5.11 5.11 0 0 1 -5.46-5.49c0-7.23.06-14.45 0-21.68a5.71 5.71 0 0 1 5.7-5.58c4.71.22 9.49.04 14.31.04zm.18 2.63c-4.65 0-9.31 0-14 0-2.63 0-3.35.72-3.36 3.3v16.05 5.43a2.37 2.37 0 0 0 2.37 2.6 14.18 14.18 0 0 0 1.46 0h7.29c1.24 0 1.32.12 1.37 1.3s0 2.09 0 3.13.07 1.22 1 .49c1.42-1.12 3-2.3 5-3.76a5.56 5.56 0 0 1 3.61-1.2h9.59c2 0 2.85-.89 2.93-2.94 0-.42 0-.84 0-1.26v-19c0-.55 0-1.11 0-1.67a2.46 2.46 0 0 0 -2.48-2.54 14.26 14.26 0 0 0 -1.46 0z"/><path d="m28.12 25.74v-1c-.05-2.51.09-2.62 2.05-2.62 1.07 0 1.77.18 1.77 1.21v2.07c-.12 1.79-.25 3.58-.4 5.37-.11 1.29-.46 1.58-1.67 1.59-.85 0-1.26-.34-1.3-1.22s-.18-1.92-.26-2.88-.16-1.95-.19-2.52z"/><path d="m28.09 36a1.93 1.93 0 0 1 1.91-2 2 2 0 0 1 0 4 1.92 1.92 0 0 1 -1.91-2z"/></g></svg>