<svg viewBox="0 0 60 60" xmlns="http://www.w3.org/2000/svg"><circle cx="30" cy="30" fill="#70abf7" r="30"/><g fill="#fff"><path d="m32 24.86a10.07 10.07 0 0 1 18.71 4.79 9.92 9.92 0 0 1 -7 9.91c-4 1.26-8.6.09-11.66-4.4a12.43 12.43 0 0 1 -2.19-.09 10.46 10.46 0 0 1 -2-.85c-.2.18-.48.39-.72.62-1.52 1.43-1.92 1.42-3.48-.06-.21-.2-.44-.38-.79-.68-.45.41-.87.81-1.3 1.19a1.57 1.57 0 0 1 -2.5 0c-1.41-1.35-2.79-2.74-4.15-4.14-.85-.88-.87-1.48-.05-2.33 1.07-1.12 2.21-2.19 3.28-3.31a2.19 2.19 0 0 1 1.78-.59h10.53c.47-.02.97-.04 1.54-.06zm1.16 8.27a14.5 14.5 0 0 1 .82 1.29 6.39 6.39 0 0 0 3.22 2.81 8 8 0 0 0 11.16-5.23 7.83 7.83 0 0 0 -2.74-8.34c-3.83-2.66-8.62-2.41-11.81 2.13a2.18 2.18 0 0 1 -2.06 1.09c-3.6 0-7.21 0-10.82 0a2.31 2.31 0 0 0 -1.41.31c-1 .86-1.92 1.86-2.91 2.85l3.53 3.54 2.68-2.39 2.42 2.42 2.5-2.28a9.81 9.81 0 0 0 2.26 1.61 9.6 9.6 0 0 0 2.69.1 2.47 2.47 0 0 1 .42.09z"/><path d="m41.7 31.58a2.76 2.76 0 1 1 4 .19 2.81 2.81 0 0 1 -4-.19zm2.83-2.58a1 1 0 0 0 -1.62.13 1 1 0 0 0 .09 1.36 1.17 1.17 0 0 0 1 .26 1.05 1.05 0 0 0 .53-1.75z"/><path d="m17.58 44.87c-2.39 0-4.56-1.67-6.1-4.71a23 23 0 0 1 -2.15-10.16 23.12 23.12 0 0 1 2.15-10.17c1.54-3 3.71-4.7 6.1-4.7s4.41 1.56 5.94 4.39a1.21 1.21 0 0 1 -.61 1.68 1.4 1.4 0 0 1 -1.81-.56c-1-1.91-2.31-3-3.52-3-2.58 0-5.58 5.07-5.58 12.36s3 12.36 5.58 12.36c1.33 0 2.75-1.34 3.81-3.58a1.4 1.4 0 0 1 1.78-.64 1.22 1.22 0 0 1 .7 1.65c-1.55 3.28-3.78 5.08-6.29 5.08z"/></g></svg>