<svg viewBox="0 0 59.44 59.44" xmlns="http://www.w3.org/2000/svg"><path d="m59.44 29.72a29.72 29.72 0 1 1 -29.72-29.72 29.71 29.71 0 0 1 29.72 29.72z" fill="#d2d2d2"/><g fill="#fff"><path d="m31.65 24.63a10 10 0 1 1 11.6 14.57c-4 1.25-8.51.08-11.55-4.37a11.35 11.35 0 0 1 -2.17-.08 11.7 11.7 0 0 1 -2-.84c-.2.17-.47.38-.72.61-1.49 1.41-1.9 1.41-3.43-.06-.22-.2-.45-.38-.79-.68-.44.41-.86.81-1.29 1.18a1.56 1.56 0 0 1 -2.48 0q-2.09-2-4.11-4.11c-.84-.87-.86-1.46 0-2.31 1.06-1.11 2.19-2.16 3.25-3.28a2.17 2.17 0 0 1 1.76-.58h10.43c.5-.01.99-.03 1.5-.05zm1.16 8.19c.28.45.58.84.81 1.28a6.23 6.23 0 0 0 3.19 2.78 8 8 0 0 0 11.1-5.16 7.74 7.74 0 0 0 -2.71-8.27c-3.8-2.7-8.55-2.4-11.7 2.1a2.15 2.15 0 0 1 -2 1.08c-3.58 0-7.15 0-10.73 0a2.33 2.33 0 0 0 -1.39.3c-1 .86-1.9 1.85-2.89 2.84l3.51 3.5 2.65-2.37 2.35 2.4 2.49-2.3a9.52 9.52 0 0 0 2.24 1.61 9.78 9.78 0 0 0 2.66.09 2.68 2.68 0 0 1 .42.12z"/><path d="m41.31 31.29a2.79 2.79 0 0 1 0-3.87 2.82 2.82 0 0 1 4 .18 2.73 2.73 0 1 1 -4 3.69zm2.81-2.53a1 1 0 0 0 -1.61.13 1 1 0 0 0 .08 1.32 1.15 1.15 0 0 0 1 .25 1 1 0 0 0 .53-1.7z"/><path d="m17.42 44.46c-2.37 0-4.52-1.66-6-4.67a22.7 22.7 0 0 1 -2.17-10.07 22.7 22.7 0 0 1 2.13-10.07c1.52-3 3.67-4.66 6-4.66s4.37 1.54 5.88 4.35a1.2 1.2 0 0 1 -.56 1.66 1.39 1.39 0 0 1 -1.8-.55c-1-1.89-2.28-3-3.48-3-2.6 0-5.49 5-5.49 12.25s2.89 12.3 5.49 12.3c1.31 0 2.72-1.33 3.77-3.55a1.39 1.39 0 0 1 1.81-.67 1.21 1.21 0 0 1 .68 1.64c-1.57 3.25-3.78 5.04-6.26 5.04z"/></g></svg>