<svg viewBox="0 0 40 35.56" xmlns="http://www.w3.org/2000/svg"><path d="m6.77 31.27a3.85 3.85 0 0 1 -1.06 3.31 3.13 3.13 0 0 1 -3.39.78 3.37 3.37 0 0 1 -2.27-2.67 6.93 6.93 0 0 1 -.05-1.29c0-4.86 0-9.72 0-14.58a8.75 8.75 0 0 1 .43-2.69c1.31-3.83 2.66-7.63 4-11.43a3.42 3.42 0 0 1 3.68-2.7h23.8c2 0 3 .76 3.66 2.7 1.34 3.8 2.68 7.61 4 11.43a7.42 7.42 0 0 1 .43 2.33v15.32a3.58 3.58 0 0 1 -1 2.68 3.13 3.13 0 0 1 -3.35.95 3.38 3.38 0 0 1 -2.39-2.57 7.91 7.91 0 0 1 -.1-1.46c-1.25-.33-23.38-.38-26.39-.11zm28.59-18c-.87-2.68-1.67-5.18-2.52-7.67a2.67 2.67 0 0 0 -3-2.14c-6.64 0-13.29 0-19.93 0a2.37 2.37 0 0 0 -2.55 1.65c-.93 2.68-1.81 5.37-2.73 8.14zm-27.5 4.6a3.35 3.35 0 0 0 -3.3 3.26 3.27 3.27 0 0 0 3.31 3.22 3.13 3.13 0 0 0 3.18-3.15 3.25 3.25 0 0 0 -3.19-3.35zm24.14 6.48a3.25 3.25 0 1 0 -3.11-3.44 3.35 3.35 0 0 0 3.11 3.44z" fill="#fff" fill-rule="evenodd"/></svg>