<svg viewBox="0 0 40 32.57" xmlns="http://www.w3.org/2000/svg"><g fill="#fff" fill-rule="evenodd"><path d="m20.33 0h.17a9.05 9.05 0 0 1 5.25 2 9.12 9.12 0 0 1 3.25 5.1 8.58 8.58 0 0 1 .24 1.75 10.35 10.35 0 0 1 -.46 3.58 10.14 10.14 0 0 1 -1.31 2.57 21 21 0 0 1 -1.73 2.14c-.75.85-1.51 1.68-2.25 2.54a17.15 17.15 0 0 0 -2.72 4.32c-.06.13-.12.26-.17.39a.64.64 0 0 1 -.6.39.63.63 0 0 1 -.6-.38c-.12-.25-.22-.5-.33-.75a16.86 16.86 0 0 0 -2.44-3.8c-.7-.83-1.43-1.64-2.16-2.45a25.54 25.54 0 0 1 -1.92-2.35 10 10 0 0 1 -1.55-3.38 11.54 11.54 0 0 1 -.24-1.86 9.64 9.64 0 0 1 .48-3.33 9.44 9.44 0 0 1 2.12-3.58 9 9 0 0 1 3.64-2.4 8.33 8.33 0 0 1 2-.42h.59a.7.7 0 0 0 .14 0zm4.56 9.27a4.89 4.89 0 1 0 -5.05 4.85 4.9 4.9 0 0 0 5.05-4.85z"/><path d="m0 31.68c.43-1 .85-1.91 1.28-2.86.22-.48.44-1 .67-1.46l12-2.12q6.28 3.65 12.61 7.28h-25.56a1.46 1.46 0 0 1 -.36 0 .67.67 0 0 1 -.64-.47z"/><path d="m21.68 26.77a23.41 23.41 0 0 1 2-3.26l11.65-2.05c0 .06.06.1.08.15q2.19 4.83 4.39 9.67c0 .12.1.25.14.38a.69.69 0 0 1 -.55.87 2.07 2.07 0 0 1 -.35 0h-7.18a.57.57 0 0 1 -.29-.08l-8.38-4.84-1.42-.82z"/><path d="m11.28 23.76-8.28 1.47c0-.16 2.05-4.65 2.26-5q3 1.76 6.07 3.5z"/><path d="m7.46 18.53h4.78c.56.49 3.48 3.75 3.91 4.36h-.08l-.83.14-7.79-4.5z"/><path d="m34.57 19.66-8.92 1.57c.79-.94 1.63-1.81 2.45-2.7h4.64a2.07 2.07 0 0 1 1.68.89 1.46 1.46 0 0 1 .15.24z"/></g></svg>