<svg viewBox="0 0 60 60" xmlns="http://www.w3.org/2000/svg"><path d="m60 30a30 30 0 1 1 -30-30 30 30 0 0 1 30 30z" fill="#c1976d"/><g fill="none"><path d="m53.2 48.63v-.17c-.13-1-.13-1-1.23-1.05h-14.85c-1 0-1 0-1.17 1.15a3.52 3.52 0 0 1 -2.86 3.15c-2.08.34-3.88-.4-4.58-1.88a4.15 4.15 0 0 1 -.29-1.77c0-1.18 0-2.38 0-3.53 0-1.51 0-3.07 0-4.61a5.12 5.12 0 0 1 2.94-5 2.49 2.49 0 0 0 1-.89 13.19 13.19 0 0 1 -3.4.34 6.23 6.23 0 0 1 -3.71 3.35 4.76 4.76 0 0 1 -1.6.27 7.54 7.54 0 0 1 -3.67-1.12 7.31 7.31 0 0 1 -6.28-.87 5.72 5.72 0 0 1 -2.38-4.07 5.51 5.51 0 0 1 -2.62-10.3 7.55 7.55 0 0 1 .71-4.83 7.36 7.36 0 0 1 4.08-3.45 8.82 8.82 0 0 1 11 5.18 7.2 7.2 0 0 1 6.15 5.13 8.09 8.09 0 0 1 -.12 6.09 3.53 3.53 0 0 0 2.32 2.25.72.72 0 0 1 .2.09c.25-.83.51-1.65.78-2.44a5.6 5.6 0 0 1 5.6-4.1h10.67a5.42 5.42 0 0 1 5.44 3.79c.45 1.19.81 2.43 1.15 3.63l.15.5a2 2 0 0 0 1.19 1.41 5.07 5.07 0 0 1 1.59 1.08 30 30 0 1 0 -6.17 13c-.01-.11-.03-.22-.04-.33z"/><path d="m35 39.86a.73.73 0 0 0 -.59.3 1.1 1.1 0 0 0 -.23.85s0 .06 0 .09c.15.48.63.73 1.46.76h.12c.5 0 1.33.06 1.47-.45a.75.75 0 0 0 -.19-.65 2.68 2.68 0 0 0 -2.04-.9z"/><path d="m30.68 49.1a1.94 1.94 0 0 0 1.6.41c.61 0 1.07-.26 1.21-.58s.42-1 .16-1.41c-.15-.25-.8-.33-1.46-.33a9.5 9.5 0 0 0 -1 .05c-.53.07-.8.25-.8.57a2.41 2.41 0 0 0 .29 1.29z"/><path d="m28.18 29.1a5.83 5.83 0 0 0 .2-4.77 5 5 0 0 0 -4.81-3.7 1 1 0 0 1 -.93-.68 2.41 2.41 0 0 0 -.08-.25 6.59 6.59 0 0 0 -8.34-4.16 5.14 5.14 0 0 0 -3.22 6.46 1 1 0 0 1 -.6 1.15 3.56 3.56 0 0 0 -2.11 3.92c.59 2.19 2.17 2.54 3.62 2.7a4.19 4.19 0 0 1 .56.08 1.07 1.07 0 0 1 .92 1.05 3.66 3.66 0 0 0 1.53 3.13 5.16 5.16 0 0 0 4.62.49h.06a.87.87 0 0 1 .35-.07 1 1 0 0 1 .53.16c.66.43 2.37 1.38 3.81.87a4 4 0 0 0 2.71-2.77 1 1 0 0 1 1.16-.71 4.35 4.35 0 0 0 1.24.08 6.45 6.45 0 0 1 -1.28-2.27 1 1 0 0 1 .06-.71z"/><path d="m54.48 40a1.39 1.39 0 0 0 -.72-.2 2 2 0 0 0 -1 .27c-.19.11-1.13.66-1.07 1.21 0 .35.38.45.59.48a3.11 3.11 0 0 0 .61 0h.28a2.06 2.06 0 0 0 1.57-.47.74.74 0 0 0 .26-.59 1.06 1.06 0 0 0 -.52-.7z"/><path d="m54.06 33c-.29-1-.58-1.95-1-2.89a3.24 3.24 0 0 0 -3.25-2.22c-4 0-7.43 0-10.65 0h-.06a3.06 3.06 0 0 0 -3.18 2.22c-.37 1-.68 2.08-1 3.1v.16c-.12.41-.19.66-.12.76s.36.11.84.11h17.84c.44 0 .65-.05.73-.17s.07-.31-.05-.72z"/><path d="m55.19 36.55h-10.78c-3.63 0-7.13 0-10.55 0a3.11 3.11 0 0 0 -3.33 3.34v3 .59c0 1.55 0 1.55 1.5 1.55h23.91a30.7 30.7 0 0 0 2.59-5.78 3.11 3.11 0 0 0 -3.34-2.7zm-16.19 5.64a2.78 2.78 0 0 1 -2.73 1.27h-.62a3.51 3.51 0 0 1 -2.65-.85 2.57 2.57 0 0 1 -.71-2.31 2.85 2.85 0 0 1 1.8-2 4.25 4.25 0 0 1 4.57 1.5 2.18 2.18 0 0 1 .34 2.39zm17.74-.9a2.51 2.51 0 0 1 -2.37 2.16c-.38 0-.8.07-1.25.07h-.12a3.79 3.79 0 0 1 -2.28-.52 2.14 2.14 0 0 1 -.62-2.54 3.85 3.85 0 0 1 2.25-2.09 3.69 3.69 0 0 1 3 0 2.75 2.75 0 0 1 1.39 2.92z"/></g><path d="m57.82 34.85a2 2 0 0 1 -1.19-1.41l-.15-.5c-.34-1.2-.7-2.44-1.15-3.63a5.42 5.42 0 0 0 -5.44-3.79h-10.67a5.6 5.6 0 0 0 -5.6 4.1c-.27.79-.53 1.61-.78 2.44a.72.72 0 0 0 -.2-.09 3.53 3.53 0 0 1 -2.28-2.22 8.09 8.09 0 0 0 .12-6.09 7.2 7.2 0 0 0 -6.15-5.13 8.82 8.82 0 0 0 -11-5.18 7.36 7.36 0 0 0 -4.12 3.45 7.55 7.55 0 0 0 -.71 4.83 5.51 5.51 0 0 0 2.62 10.29 5.72 5.72 0 0 0 2.38 4.08 7.31 7.31 0 0 0 6.28.86 7.54 7.54 0 0 0 3.67 1.14 4.76 4.76 0 0 0 1.6-.27 6.23 6.23 0 0 0 3.71-3.35 13.19 13.19 0 0 0 3.4-.34 2.49 2.49 0 0 1 -1 .89 5.12 5.12 0 0 0 -2.94 5v4.61 3.53a4.15 4.15 0 0 0 .29 1.77c.7 1.48 2.5 2.22 4.58 1.88a3.52 3.52 0 0 0 2.86-3.15c.16-1.14.16-1.14 1.17-1.15h14.88c1.1 0 1.1 0 1.23 1.05v.17.33a30 30 0 0 0 2.7-3.89h-23.93c-1.49 0-1.49 0-1.5-1.55v-.59c0-1 0-2 0-3a3.11 3.11 0 0 1 3.33-3.34h10.55 10.81a3.11 3.11 0 0 1 3.34 2.74 30.65 30.65 0 0 0 .88-3.36 5.07 5.07 0 0 0 -1.59-1.13zm-29.66-2.85a1 1 0 0 0 -1.18.68 4 4 0 0 1 -2.67 2.75c-1.44.51-3.15-.44-3.81-.87a1 1 0 0 0 -.53-.16.87.87 0 0 0 -.35.07h-.06a5.16 5.16 0 0 1 -4.62-.49 3.66 3.66 0 0 1 -1.53-3.13 1.07 1.07 0 0 0 -.92-1.05 4.19 4.19 0 0 0 -.56-.08c-1.45-.16-3-.51-3.62-2.7a3.56 3.56 0 0 1 2.11-3.92 1 1 0 0 0 .58-1.1 5.14 5.14 0 0 1 3.24-6.48 6.59 6.59 0 0 1 8.34 4.16 2.41 2.41 0 0 1 .08.25 1 1 0 0 0 .93.68 5 5 0 0 1 4.81 3.7 5.83 5.83 0 0 1 -.2 4.77 1 1 0 0 0 -.06.74 6.45 6.45 0 0 0 1.28 2.27 4.35 4.35 0 0 1 -1.26-.09zm3.06 15.21a9.5 9.5 0 0 1 1-.05c.66 0 1.31.08 1.46.33.26.43 0 1.13-.16 1.41s-.6.53-1.21.58a1.94 1.94 0 0 1 -1.6-.41 2.41 2.41 0 0 1 -.26-1.29c-.03-.29.24-.47.77-.54zm22.99-13.21c-.08.12-.29.16-.73.17h-17.87c-.48 0-.76 0-.84-.11s0-.35.12-.76v-.16c.31-1 .62-2.08 1-3.1a3.06 3.06 0 0 1 3.18-2.22h.06 10.65a3.24 3.24 0 0 1 3.25 2.22c.38.94.67 1.93 1 2.89l.1.35c.15.44.17.64.08.72z" fill="#fff"/><path d="m34.06 38.27a2.85 2.85 0 0 0 -1.8 2 2.57 2.57 0 0 0 .74 2.34 3.51 3.51 0 0 0 2.68.86h.62a2.78 2.78 0 0 0 2.7-1.28 2.18 2.18 0 0 0 -.37-2.42 4.25 4.25 0 0 0 -4.57-1.5zm1.68 3.59h-.12c-.83 0-1.31-.28-1.46-.76 0 0 0-.06 0-.09a1.1 1.1 0 0 1 .23-.85.73.73 0 0 1 .59-.3 2.68 2.68 0 0 1 2.05.9.75.75 0 0 1 .19.65c-.15.51-.98.47-1.48.45z" fill="#fff"/><path d="m55.32 38.37a3.69 3.69 0 0 0 -3 0 3.85 3.85 0 0 0 -2.25 2.09 2.14 2.14 0 0 0 .65 2.54 3.79 3.79 0 0 0 2.25.53h.14c.45 0 .87 0 1.25-.07a2.51 2.51 0 0 0 2.37-2.16 2.75 2.75 0 0 0 -1.41-2.93zm-.54 2.94a2.06 2.06 0 0 1 -1.57.47h-.28a3.11 3.11 0 0 1 -.61 0c-.21 0-.56-.13-.59-.48-.06-.55.88-1.1 1.07-1.21a2 2 0 0 1 1-.27 1.39 1.39 0 0 1 .72.2 1.06 1.06 0 0 1 .48.69.74.74 0 0 1 -.22.6z" fill="#fff"/></svg>