<svg viewBox="0 0 30.51 40" xmlns="http://www.w3.org/2000/svg"><path d="m5.71 13.32c0-1.51 0-2.77 0-4-.11-4.53 4.19-9.25 9.29-9.32a9.82 9.82 0 0 1 9.61 7.56 7.46 7.46 0 0 1 .15 1.57v3.94c.55.44 1.16.26 1.71.24a3.94 3.94 0 0 1 4 4q-.09 9.4 0 18.8a3.94 3.94 0 0 1 -3.84 3.89q-11.37 0-22.75 0a3.94 3.94 0 0 1 -3.88-3.93q.09-9.41 0-18.8a3.9 3.9 0 0 1 4-3.95c.52.02 1 0 1.71 0zm3.79-.08h11.38c0-1.23 0-2.37 0-3.52a7.52 7.52 0 0 0 -.27-1.55 5.33 5.33 0 0 0 -5.3-4.17 5.24 5.24 0 0 0 -5.38 4.22 45 45 0 0 0 -.43 5.02zm9.5 13.36a3.87 3.87 0 0 0 -3.84-3.6 3.89 3.89 0 0 0 -3.62 3.84 3.89 3.89 0 0 0 3.73 3.58 3.9 3.9 0 0 0 3.73-3.82z" fill="#fff" fill-rule="evenodd"/></svg>