<svg viewBox="0 0 60 53.1" xmlns="http://www.w3.org/2000/svg"><g fill="#949494" fill-rule="evenodd"><path d="m56.12 11.66q-10.4-4.66-20.79-9.36c-1.6-.72-3.21-1.42-4.8-2.17a1.28 1.28 0 0 0 -1.16 0q-9.37 4.28-18.86 8.51l-10 4.5c-.63.28-.63.29-.37.89s.62 1.39.91 2.09c.14.33.28.46.66.3.85-.35.85-.33.85.62q0 17.61 0 35.24v.82h6.1c0-3.56 0-7.12 0-10.67v-26c0-.69 0-.69.67-.69h41.19c.66 0 .67 0 .67.63q0 14.25 0 28.5 0 4.13 0 8.27h6.1c0-.9.05-1.8.05-2.69v-33.67c0-.1 0-.2 0-.3 0-.3.1-.4.39-.27h.05c.89.33.89.33 1.27-.54.31-.71.63-1.42 1-2.13v-.12c-1.34-.58-2.63-1.18-3.93-1.76z"/><path d="m45.12 36.66a23 23 0 0 0 -2.62.07c-.26 0-.4 0-.44-.26a2.85 2.85 0 0 0 -.11-.39c-.51-1.73-1-3.47-1.55-5.21a2.36 2.36 0 0 0 -2.09-1.77c-1.1-.14-2.2-.28-3.31-.36a77 77 0 0 0 -10.95 0c-.83.06-1.66.2-2.49.33a2.34 2.34 0 0 0 -2 1.66c-.15.41-.3.83-.43 1.25-.43 1.47-.84 2.93-1.27 4.39-.05.18 0 .37-.34.35-.83-.08-1.66-.13-2.5-.13a1.42 1.42 0 0 0 -1.38 1.26 1.44 1.44 0 0 0 .95 1.5 5.75 5.75 0 0 0 .78.23c.35.09.39.26.22.54a4.42 4.42 0 0 0 -.54 2.91c.11.82.21 1.64.4 2.45a21.47 21.47 0 0 1 .63 6.24 1.32 1.32 0 0 0 .74 1.34h4.1a1.46 1.46 0 0 0 .67-1.39c0-.33 0-.66 0-1s.14-.51.52-.51h15.45c.73 0 .74 0 .75.74a6.26 6.26 0 0 1 0 .75 1.44 1.44 0 0 0 .69 1.45h4.11a1.39 1.39 0 0 0 .73-1.4 18.8 18.8 0 0 1 .46-5.39c.26-1 .39-2.08.55-3.13a4.45 4.45 0 0 0 -.47-2.91c-.25-.46-.27-.52.34-.69a4.1 4.1 0 0 0 .77-.26 1.43 1.43 0 0 0 .79-1.43 1.39 1.39 0 0 0 -1.16-1.23zm-24.95 10.27a1.26 1.26 0 0 1 -1.28-1.23 1.28 1.28 0 0 1 1.28-1.25 1.26 1.26 0 0 1 1.21 1.25 1.21 1.21 0 0 1 -1.21 1.23zm17.53-10.09c-2-.17-3.93-.39-5.9-.43-2.28 0-4.57 0-6.85.13-1.55.1-3.09.4-4.63.63-.48.07-.52.06-.4-.36.5-1.7 1-3.4 1.5-5.1a.76.76 0 0 1 .72-.63c.8-.07 1.59-.23 2.39-.28a78.81 78.81 0 0 1 9.72 0c1.22.07 2.44.24 3.67.35a.57.57 0 0 1 .53.46c.52 1.73 1 3.47 1.55 5.2v.13c0 .32-.18.31-.42.26-.58-.2-1.24-.3-1.88-.36zm2.08 10.09a1.19 1.19 0 0 1 -1.22-1.21 1.23 1.23 0 1 1 2.45 0 1.2 1.2 0 0 1 -1.23 1.21z"/><path d="m48.85 22.86h-36.19c-.61 0-1.21 0-1.82 0-.35 0-.5.31-.49 1.11v1.86c0 1.39 0 1.41.63 1.41h18.95 18.42c1.38 0 1.2.55 1.23-2.72.01-1.6-.02-1.66-.73-1.66z"/><path d="m49.58 19.41c0-2.34.23-2.45-1.09-2.45h-37.35c-.76 0-.8.07-.79 1.79 0 3-.14 2.59 1.17 2.59h18.42 19c.61 0 .64-.06.65-1.41z"/></g></svg>