<svg xmlns="http://www.w3.org/2000/svg" viewBox="0 0 29.81 40"><defs><style>.cls-1{fill:#0071b7;fill-rule:evenodd;}</style></defs><g id="圖層_2" data-name="圖層 2"><g id="Layer_1" data-name="Layer 1"><path class="cls-1" d="M15.43,0a1.37,1.37,0,0,0,.28.05,14.52,14.52,0,0,1,8.46,3.21,14.66,14.66,0,0,1,5.24,8.18,15,15,0,0,1,.39,2.83A16.58,16.58,0,0,1,29.05,20a16,16,0,0,1-2.11,4.21,35.67,35.67,0,0,1-2.78,3.46c-1.22,1.35-2.45,2.7-3.63,4.08a28,28,0,0,0-4.4,7c-.09.21-.17.42-.27.63a1.06,1.06,0,0,1-1.93,0c-.19-.39-.35-.8-.53-1.2a27.52,27.52,0,0,0-3.93-6.12c-1.13-1.34-2.31-2.64-3.48-4a38.93,38.93,0,0,1-3.1-3.8A15.67,15.67,0,0,1,.4,18.81a15,15,0,0,1-.39-3A15.59,15.59,0,0,1,4.2,4.67,14.41,14.41,0,0,1,10.11.81a13.24,13.24,0,0,1,3.1-.69l.95-.07.22,0Zm7.35,14.94a7.88,7.88,0,1,0-8.13,7.84A7.88,7.88,0,0,0,22.78,14.94Z"/></g></g></svg>