<svg viewBox="0 0 122.19 153.72" xmlns="http://www.w3.org/2000/svg" xmlns:xlink="http://www.w3.org/1999/xlink"><clipPath id="a"><path d="m35.16 33a44.1 44.1 0 0 1 12.35 1.8 40.15 40.15 0 0 1 15.27 8.94c.87.79 1.71 1.62 2.5 2.46a40.21 40.21 0 0 1 6.11 8.64c1.91 3.6 3 7.72 4.93 11.24a24.64 24.64 0 0 0 45.87-12.55 31.38 31.38 0 0 0 -1.29-8.12 61.53 61.53 0 0 0 -120.11 6.25 41.16 41.16 0 0 1 34.37-18.66z"/></clipPath><clipPath id="b"><path d="m2.11 77.58.09.42a63.28 63.28 0 0 0 2.49 7.21 52.72 52.72 0 0 0 3.31 6.68c.67 1.11 1.34 2.11 2 3.16a35.79 35.79 0 0 0 2.12 3.08l1.3 1.56c.51.61 1 1.23 1.53 1.83s1.23 1.48 1.85 2.21l2.2 2.63 2.52 3s1.87 2.22 2.79 3.33l3 3.56 3.1 3.69 3.14 3.75 3.12 3.72c1 1.23 2.05 2.45 3.07 3.66l3 3.56 2.87 3.42 2.71 3.23c.82 1 1.65 2 2.47 2.95s1.42 1.68 2.12 2.53l1.66 2 1.16 1.39.72.86.48.57a6 6 0 0 0 9.27 0l45.88-54.7a7 7 0 0 0 -11.67-7.88 54.89 54.89 0 0 1 -64.73 22.59 54.87 54.87 0 0 1 -33.57-34.01z"/></clipPath><clipPath id="c"><path d="m60.47 43.84c.77-.06 1.54-.09 2.31-.1a40.15 40.15 0 0 0 -15.27-8.94 44.1 44.1 0 0 0 -12.35-1.8 41.16 41.16 0 0 0 -34.37 18.66 61.56 61.56 0 0 0 -.79 9.85v1c.11 2.65.26 5.29.61 7.91a53.71 53.71 0 0 0 1.46 7.2 54.87 54.87 0 0 0 33.57 34 39.58 39.58 0 0 1 24.83-67.78z"/></clipPath><g clip-path="url(#a)"><path d="m34.71 0-18.89 58.61-15.03-4.85v-53.76z" fill="#8bffbb"/><path d="m35.35 0-18.94 58.8-.59-.19 18.89-58.61z" fill="#8bffbb"/><path d="m36 0-19 58.99-.59-.19 18.94-58.8z" fill="#8afebb"/><path d="m36.65 0-19.07 59.18-.58-.19 19-58.99z" fill="#89fdbc"/><path d="m37.3 0-19.13 59.37-.59-.19 19.07-59.18z" fill="#88fcbc"/><path d="m37.95 0-19.19 59.55-.59-.18 19.13-59.37z" fill="#87fbbc"/><path d="m38.6 0-19.25 59.74-.59-.19 19.19-59.55z" fill="#87fabc"/><path d="m39.24 0-19.31 59.93-.58-.19 19.25-59.74z" fill="#86f9bd"/><path d="m39.89 0-19.37 60.12-.59-.19 19.31-59.93z" fill="#85f8bd"/><path d="m40.54 0-19.43 60.31-.59-.19 19.37-60.12z" fill="#84f7bd"/><path d="m41.19 0-19.5 60.5-.58-.19 19.43-60.31z" fill="#83f6be"/><path d="m41.84 0-19.56 60.69-.59-.19 19.5-60.5z" fill="#82f5be"/><path d="m42.48 0-19.61 60.88-.59-.19 19.56-60.69z" fill="#81f4be"/><path d="m43.13 0-19.67 61.07-.59-.19 19.61-60.88z" fill="#80f3be"/><path d="m43.78 0-19.74 61.26-.58-.19 19.67-61.07z" fill="#7ff2bf"/><path d="m44.43 0-19.8 61.45-.59-.19 19.74-61.26z" fill="#7ff1bf"/><path d="m45.08 0-19.86 61.63-.59-.18 19.8-61.45z" fill="#7ef0bf"/><path d="m45.73 0-19.92 61.83-.59-.2 19.86-61.63z" fill="#7defc0"/><path d="m46.38 0-19.99 62.01-.58-.18 19.92-61.83z" fill="#7ceec0"/><path d="m47.02 0-20.04 62.2-.59-.19 19.99-62.01z" fill="#7bedc0"/><path d="m47.67 0-20.1 62.39-.59-.19 20.04-62.2z" fill="#7aecc0"/><path d="m48.32 0-20.17 62.58-.58-.19 20.1-62.39z" fill="#79ebc1"/><path d="m48.97 0-20.23 62.77-.59-.19 20.17-62.58z" fill="#78eac1"/><path d="m49.62 0-20.29 62.96-.59-.19 20.23-62.77z" fill="#77e9c1"/><path d="m50.26 0-20.34 63.15-.59-.19 20.29-62.96z" fill="#77e8c2"/><path d="m50.91 0-20.41 63.34-.58-.19 20.34-63.15z" fill="#76e6c2"/><path d="m51.56 0-20.47 63.53-.59-.19 20.41-63.34z" fill="#75e5c2"/><path d="m52.21 0-20.53 63.72-.59-.19 20.47-63.53z" fill="#74e4c2"/><path d="m52.86 0-20.59 63.91-.59-.19 20.53-63.72z" fill="#73e3c3"/><path d="m53.51 0-20.66 64.09-.58-.18 20.59-63.91z" fill="#72e2c3"/><path d="m54.15 0-20.71 64.28-.59-.19 20.66-64.09z" fill="#71e1c3"/><path d="m54.8 0-20.77 64.47-.59-.19 20.71-64.28z" fill="#70e0c3"/><path d="m55.45 0-20.84 64.66-.58-.19 20.77-64.47z" fill="#6fdfc4"/><path d="m56.1 0-20.9 64.85-.59-.19 20.84-64.66z" fill="#6edec4"/><path d="m56.75 0-20.96 65.04-.59-.19 20.9-64.85z" fill="#6eddc4"/><path d="m57.39 0-21.01 65.23-.59-.19 20.96-65.04z" fill="#6ddcc5"/><path d="m58.04 0-21.08 65.42-.58-.19 21.01-65.23z" fill="#6cdbc5"/><path d="m58.69 0-21.14 65.61-.59-.19 21.08-65.42z" fill="#6bdac5"/><path d="m59.34 0-21.2 65.8-.59-.19 21.14-65.61z" fill="#6ad9c5"/><path d="m59.99 0-21.27 65.99-.58-.19 21.2-65.8z" fill="#69d8c6"/><path d="m60.63 0-21.32 66.18-.59-.19 21.27-65.99z" fill="#68d7c6"/><path d="m61.28 0-21.38 66.37-.59-.19 21.32-66.18z" fill="#67d6c6"/><path d="m61.93 0-21.45 66.56-.58-.19 21.38-66.37z" fill="#66d5c7"/><path d="m62.58 0-21.51 66.74-.59-.18 21.45-66.56z" fill="#66d4c7"/><path d="m63.23 0-21.57 66.93-.59-.19 21.51-66.74z" fill="#65d3c7"/><path d="m63.88 0-21.63 67.12-.59-.19 21.57-66.93z" fill="#64d2c7"/><path d="m64.52 0-21.68 67.31-.59-.19 21.63-67.12z" fill="#63d1c8"/><path d="m65.17 0-21.75 67.5-.58-.19 21.68-67.31z" fill="#62d0c8"/><path d="m65.78 0-21.8 67.68-.56-.18 21.75-67.5z" fill="#62d0c8"/><path d="m66.4 0-21.87 67.86-.55-.18 21.8-67.68z" fill="#61cfc8"/><path d="m67.01 0-21.92 68.04-.56-.18 21.87-67.86z" fill="#60cec9"/><path d="m67.62 0-21.98 68.22-.55-.18 21.92-68.04z" fill="#5fcdc9"/><path d="m68.23 0-22.04 68.39-.55-.17 21.98-68.22z" fill="#5ecdc9"/><path d="m68.84 0-22.09 68.57-.56-.18 22.04-68.39z" fill="#5dccc9"/><path d="m69.46 0-22.16 68.75-.55-.18 22.09-68.57z" fill="#5ccbca"/><path d="m70.07 0-22.21 68.93-.56-.18 22.16-68.75z" fill="#5bcaca"/><path d="m70.68 0-22.27 69.11-.55-.18 22.21-68.93z" fill="#5ac9ca"/><path d="m71.29 0-22.32 69.29-.56-.18 22.27-69.11z" fill="#59c8cb"/><path d="m71.91 0-22.39 69.47-.55-.18 22.32-69.29z" fill="#58c7cb"/><path d="m72.52 0-22.44 69.64-.56-.17 22.39-69.47z" fill="#57c6cb"/><path d="m73.13 0-22.5 69.82-.55-.18 22.44-69.64z" fill="#56c6cb"/><path d="m73.74 0-22.55 70-.56-.18 22.5-69.82z" fill="#55c5cc"/><path d="m74.35 0-22.61 70.18-.55-.18 22.55-70z" fill="#54c4cc"/><path d="m74.97 0-22.67 70.36-.56-.18 22.61-70.18z" fill="#53c3cc"/><path d="m75.58 0-22.73 70.54-.55-.18 22.67-70.36z" fill="#52c2cd"/><path d="m76.19 0-22.79 70.72-.55-.18 22.73-70.54z" fill="#51c1cd"/><path d="m76.8 0-22.84 70.9-.56-.18 22.79-70.72z" fill="#50c0cd"/><path d="m77.42 0-22.91 71.08-.55-.18 22.84-70.9z" fill="#4fc0cd"/><path d="m78.03 0-22.96 71.25-.56-.17 22.91-71.08z" fill="#4ebfce"/><path d="m78.64 0-23.02 71.43-.55-.18 22.96-71.25z" fill="#4dbece"/><path d="m79.25 0-23.07 71.61-.56-.18 23.02-71.43z" fill="#4cbdce"/><path d="m79.86 0-23.13 71.79-.55-.18 23.07-71.61z" fill="#4bbccf"/><path d="m80.48 0-23.2 71.97-.55-.18 23.13-71.79z" fill="#4abbcf"/><path d="m81.09 0-23.25 72.15-.56-.18 23.2-71.97z" fill="#49bacf"/><path d="m81.7 0-23.3 72.33-.56-.18 23.25-72.15z" fill="#48b9d0"/><path d="m82.31 0-23.36 72.5-.55-.17 23.3-72.33z" fill="#47b9d0"/><path d="m82.92 0-23.42 72.68-.55-.18 23.36-72.5z" fill="#46b8d0"/><path d="m83.54 0-23.48 72.86-.56-.18 23.42-72.68z" fill="#45b7d0"/><path d="m84.15 0-23.54 73.04-.55-.18 23.48-72.86z" fill="#44b6d1"/><path d="m84.76 0-23.59 73.22-.56-.18 23.54-73.04z" fill="#43b5d1"/><path d="m85.37 0-23.65 73.4-.55-.18 23.59-73.22z" fill="#42b4d1"/><path d="m85.98 0-23.7 73.58-.56-.18 23.65-73.4z" fill="#41b3d2"/><path d="m86.6 0-23.77 73.75-.55-.17 23.7-73.58z" fill="#40b3d2"/><path d="m87.21 0-23.82 73.93-.56-.18 23.77-73.75z" fill="#3fb2d2"/><path d="m87.82 0-23.88 74.11-.55-.18 23.82-73.93z" fill="#3eb1d2"/><path d="m88.43 0-23.94 74.29-.55-.18 23.88-74.11z" fill="#3db0d3"/><path d="m89.05 0-24 74.47-.56-.18 23.94-74.29z" fill="#3cafd3"/><path d="m89.66 0-24.06 74.65-.55-.18 24-74.47z" fill="#3baed3"/><path d="m90.27 0-24.11 74.83-.56-.18 24.06-74.65z" fill="#3aadd4"/><path d="m90.88 0-24.17 75.01-.55-.18 24.11-74.83z" fill="#39acd4"/><path d="m91.49 0-24.22 75.19-.56-.18 24.17-75.01z" fill="#38acd4"/><path d="m92.11 0-24.29 75.36-.55-.17 24.22-75.19z" fill="#37abd4"/><path d="m92.72 0-24.34 75.54-.56-.18 24.29-75.36z" fill="#36aad5"/><path d="m93.33 0-24.4 75.72-.55-.18 24.34-75.54z" fill="#35a9d5"/><path d="m93.94 0-24.46 75.9-.55-.18 24.4-75.72z" fill="#34a8d5"/><path d="m94.56 0-24.52 76.08-.56-.18 24.46-75.9z" fill="#33a7d6"/><path d="m95.17 0-24.58 76.26-.55-.18 24.52-76.08z" fill="#32a6d6"/><path d="m95.78 0-24.63 76.44-.56-.18 24.58-76.26z" fill="#30a6d6"/><path d="m96.39 0-24.69 76.61-.55-.17 24.63-76.44z" fill="#2fa5d6"/><path d="m96.44 0 .51.17-24.69 76.62-.56-.18 24.69-76.61z" fill="#2ea4d7"/><path d="m44.63 38.28h80.51v.58h-80.51z" fill="#2da3d7" transform="matrix(.31 -.95 .95 .31 22.14 107.53)"/><path d="m45.18 38.46h80.51v.58h-80.51z" fill="#2ca2d7" transform="matrix(.3066922 -.95180875 .95180875 .3066922 22.36 108.19)"/><path d="m45.74 38.63h80.51v.58h-80.51z" fill="#2ba1d8" transform="matrix(.3066922 -.95180875 .95180875 .3066922 22.57 108.84)"/><path d="m46.29 38.81h80.51v.58h-80.51z" fill="#2aa0d8" transform="matrix(.3066922 -.95180875 .95180875 .3066922 22.79 109.49)"/><path d="m46.85 38.99h80.51v.58h-80.51z" fill="#29a0d8" transform="matrix(.30719053 -.95164803 .95164803 .30719053 22.96 110.11)"/><path d="m47.4 39.17h80.51v.58h-80.51z" fill="#289fd8" transform="matrix(.3066922 -.95180875 .95180875 .3066922 23.21 110.79)"/><path d="m47.96 39.35h80.51v.58h-80.51z" fill="#279ed9" transform="matrix(.30685832 -.9517552 .9517552 .30685832 23.41 111.43)"/><path d="m100.83 1.42.56.17-24.69 76.62h-.03l-.53-.17z" fill="#269dd9"/><path d="m101.39 1.59.55.18-24.63 76.44h-.61z" fill="#259cd9"/><path d="m101.94 1.77.56.18-24.58 76.26h-.61z" fill="#249bda"/><path d="m102.5 1.95.55.18-24.52 76.08h-.61z" fill="#239ada"/><path d="m103.05 2.13.55.18-24.45 75.9h-.62z" fill="#2299da"/><path d="m103.6 2.31.56.18-24.4 75.72h-.61z" fill="#2199da"/><path d="m104.16 2.49.55.18-24.34 75.54h-.61z" fill="#2098db"/><path d="m104.71 2.67.56.18-24.29 75.36h-.61z" fill="#1f97db"/><path d="m105.27 2.85.55.17-24.23 75.19h-.61z" fill="#1e96db"/><path d="m105.82 3.02.56.18-24.17 75.01h-.62z" fill="#1d95dc"/><path d="m106.38 3.2.55.18-24.11 74.83h-.61z" fill="#1c94dc"/><path d="m106.93 3.38.55.18-24.05 74.65h-.61z" fill="#1b93dc"/><path d="m107.48 3.56.56.18-24 74.47h-.61z" fill="#1a93dc"/><path d="m108.04 3.74.55.18-23.93 74.29h-.62z" fill="#1992dd"/><path d="m108.59 3.92.56.18-23.88 74.11h-.61z" fill="#1891dd"/><path d="m109.15 4.1.55.18-23.82 73.93h-.61z" fill="#1790dd"/><path d="m109.7 4.28.56.17-23.77 73.76h-.61z" fill="#168fde"/><path d="m110.26 4.45.55.18-23.71 73.58h-.61z" fill="#158ede"/><path d="m110.81 4.63.56.18-23.65 73.4h-.62z" fill="#148dde"/><path d="m111.37 4.81.55.18-23.59 73.22h-.61z" fill="#138cdf"/><path d="m111.92 4.99.56.18-23.54 73.04h-.61z" fill="#128cdf"/><path d="m112.48 5.17.55.18-23.48 72.86h-.61z" fill="#118bdf"/><path d="m113.03 5.35.56.18-23.43 72.68h-.61z" fill="#108adf"/><path d="m113.59 5.53.55.18-23.36 72.5h-.62z" fill="#0f89e0"/><path d="m114.14 5.71.55.17-23.3 72.33h-.61z" fill="#0e88e0"/><path d="m114.69 5.88.56.18-23.25 72.15h-.61z" fill="#0d87e0"/><path d="m115.25 6.06.55.18-23.19 71.97h-.61z" fill="#0c86e1"/><path d="m115.8 6.24.56.18-23.14 71.79h-.61z" fill="#0b86e1"/><path d="m116.36 6.42.55.18-23.07 71.61h-.62z" fill="#0a85e1"/><path d="m116.91 6.6.56.18-23.02 71.43h-.61z" fill="#0984e1"/><path d="m117.47 6.78.55.18-22.96 71.25h-.61z" fill="#0883e2"/><path d="m118.02 6.96.56.17-22.91 71.08h-.61z" fill="#0782e2"/><path d="m118.58 7.13.55.18-22.84 70.9h-.62z" fill="#0681e2"/><path d="m119.13 7.31.56.18-22.79 70.72h-.61z" fill="#0580e3"/><path d="m119.69 7.49.55.18-22.73 70.54h-.61z" fill="#047fe3"/><path d="m120.24 7.67.56.18-22.68 70.36h-.61z" fill="#037fe3"/><path d="m120.8 7.85.55.18-22.62 70.18h-.61z" fill="#027ee3"/><path d="m121.35 8.03.55.18-22.55 70h-.62z" fill="#017de4"/><g fill="#007ce4"><path d="m121.9 8.21.29.09v.92l-22.23 68.99h-.61z"/><path d="m99.96 78.21 22.23-68.99v68.99z"/></g></g><g clip-path="url(#b)"><path d="m113.11 111.09-22.67-33.51h22.67z" fill="#8bffbb"/><path d="m113.11 112.04-23.32-34.46h.65l22.67 33.51z" fill="#8bffbb"/><path d="m113.11 113-23.96-35.42h.64l23.32 34.46z" fill="#8afebb"/><path d="m113.11 113.96-24.61-36.38h.65l23.96 35.42z" fill="#89fdbc"/><path d="m113.11 114.91-25.26-37.33h.65l24.61 36.38z" fill="#88fcbc"/><path d="m113.11 115.87-25.9-38.29h.64l25.26 37.33z" fill="#87fbbc"/><path d="m113.11 116.82-26.55-39.24h.65l25.9 38.29z" fill="#87fabc"/><path d="m113.11 117.78-27.2-40.2h.65l26.55 39.24z" fill="#86f9bd"/><path d="m113.11 118.74-27.84-41.16h.64l27.2 40.2z" fill="#85f8bd"/><path d="m113.11 119.69-28.49-42.11h.65l27.84 41.16z" fill="#84f7bd"/><path d="m113.11 120.65-29.14-43.07h.65l28.49 42.11z" fill="#83f6be"/><path d="m113.11 121.6-29.78-44.02h.64l29.14 43.07z" fill="#82f5be"/><path d="m113.11 122.56-30.43-44.98h.65l29.78 44.02z" fill="#81f4be"/><path d="m113.11 122.81-.33.22-30.75-45.45h.65l30.43 44.98z" fill="#80f3be"/><path d="m112.78 123.03-.45.3-30.94-45.75h.64z" fill="#7ff2bf"/><path d="m112.33 123.33-.44.3-31.15-46.05h.65z" fill="#7ff1bf"/><path d="m111.89 123.63-.45.3-31.35-46.35h.65z" fill="#7ef0bf"/><path d="m111.44 123.93-.44.3-31.55-46.65h.64z" fill="#7defc0"/><path d="m111 124.23-.44.3-31.76-46.95h.65z" fill="#7ceec0"/><path d="m110.56 124.53-.45.3-31.96-47.25h.65z" fill="#7bedc0"/><path d="m110.11 124.83-.44.3-32.16-47.55h.64z" fill="#7aecc0"/><path d="m109.67 125.13-.44.3-32.37-47.85h.65z" fill="#79ebc1"/><path d="m109.23 125.43-.45.3-32.57-48.15h.65z" fill="#78eac1"/><path d="m108.78 125.73-.44.3-32.77-48.45h.64z" fill="#77e9c1"/><path d="m108.34 126.03-.44.3-32.98-48.75h.65z" fill="#77e8c2"/><path d="m107.9 126.33-.45.3-33.18-49.05h.65z" fill="#76e6c2"/><path d="m107.45 126.63-.44.3-33.38-49.35h.64z" fill="#75e5c2"/><path d="m107.01 126.93-.45.3-33.58-49.65h.65z" fill="#74e4c2"/><path d="m106.56 127.23-.44.3-33.79-49.95h.65z" fill="#73e3c3"/><path d="m106.12 127.53-.44.3-33.99-50.25h.64z" fill="#72e2c3"/><path d="m105.68 127.83-.45.3-34.19-50.55h.65z" fill="#71e1c3"/><path d="m105.23 128.13-.44.3-34.4-50.85h.65z" fill="#70e0c3"/><path d="m104.79 128.43-.44.3-34.6-51.15h.64z" fill="#6fdfc4"/><path d="m104.35 128.73-.45.3-34.8-51.45h.65z" fill="#6edec4"/><path d="m103.9 129.03-.44.3-35.01-51.75h.65z" fill="#6eddc4"/><path d="m103.46 129.33-.44.3-35.21-52.05h.64z" fill="#6ddcc5"/><path d="m103.02 129.63-.45.3-35.41-52.35h.65z" fill="#6cdbc5"/><path d="m102.57 129.93-.44.3-35.62-52.65h.65z" fill="#6bdac5"/><path d="m102.13 130.23-.44.3-35.82-52.95h.64z" fill="#6ad9c5"/><path d="m101.69 130.53-.45.3-36.02-53.25h.65z" fill="#69d8c6"/><path d="m101.24 130.83-.44.3-36.23-53.55h.65z" fill="#68d7c6"/><path d="m100.8 131.13-.45.3-36.42-53.85h.64z" fill="#67d6c6"/><path d="m100.35 131.43-.44.3-36.63-54.15h.65z" fill="#66d5c7"/><path d="m99.91 131.73-.44.3-36.84-54.45h.65z" fill="#66d4c7"/><path d="m99.47 132.03-.45.3-37.04-54.75h.65z" fill="#65d3c7"/><path d="m99.02 132.33-.44.3-37.24-55.05h.64z" fill="#64d2c7"/><path d="m98.58 132.63-.44.31-37.45-55.36h.65z" fill="#63d1c8"/><path d="m98.14 132.94-.45.3-37.64-55.66h.64z" fill="#62d0c8"/><path d="m97.69 133.24-.42.28-37.83-55.94h.61z" fill="#62d0c8"/><path d="m97.27 133.52-.42.28-38.03-56.22h.62z" fill="#61cfc8"/><path d="m96.85 133.8-.41.29-38.23-56.51h.61z" fill="#60cec9"/><path d="m96.44 134.09-.42.28-38.42-56.79h.61z" fill="#5fcdc9"/><path d="m96.02 134.37-.42.28-38.61-57.07h.61z" fill="#5ecdc9"/><path d="m95.6 134.65-.42.29-38.8-57.36h.61z" fill="#5dccc9"/><path d="m95.18 134.94-.42.28-38.99-57.64h.61z" fill="#5ccbca"/><path d="m94.76 135.22-.42.28-39.18-57.92h.61z" fill="#5bcaca"/><path d="m94.34 135.5-.42.29-39.37-58.21h.61z" fill="#5ac9ca"/><path d="m93.92 135.79-.42.28-39.56-58.49h.61z" fill="#59c8cb"/><path d="m93.5 136.07-.42.28-39.75-58.77h.61z" fill="#58c7cb"/><path d="m93.08 136.35-.42.29-39.94-59.06h.61z" fill="#57c6cb"/><path d="m92.66 136.64-.41.28-40.15-59.34h.62z" fill="#56c6cb"/><path d="m92.25 136.92-.42.28-40.34-59.62h.61z" fill="#55c5cc"/><path d="m91.83 137.2-.42.29-40.53-59.91h.61z" fill="#54c4cc"/><path d="m91.41 137.49-.42.28-40.72-60.19h.61z" fill="#53c3cc"/><path d="m90.99 137.77-.42.28-40.91-60.47h.61z" fill="#52c2cd"/><path d="m90.57 138.05-.42.29-41.1-60.76h.61z" fill="#51c1cd"/><path d="m90.15 138.34-.42.28-41.29-61.04h.61z" fill="#50c0cd"/><path d="m89.73 138.62-.42.28-41.48-61.32h.61z" fill="#4fc0cd"/><path d="m89.31 138.9-.42.29-41.67-61.61h.61z" fill="#4ebfce"/><path d="m88.89 139.19-.42.28-41.86-61.89h.61z" fill="#4dbece"/><path d="m88.47 139.47-.41.28-42.06-62.17h.61z" fill="#4cbdce"/><path d="m88.06 139.75-.42.29-42.25-62.46h.61z" fill="#4bbccf"/><path d="m87.64 140.04-.42.28-42.44-62.74h.61z" fill="#4abbcf"/><path d="m87.22 140.32-.42.28-42.63-63.02h.61z" fill="#49bacf"/><path d="m86.8 140.6-.42.29-42.82-63.31h.61z" fill="#48b9d0"/><path d="m86.38 140.89-.42.28-43.01-63.59h.61z" fill="#47b9d0"/><path d="m85.96 141.17-.42.29-43.21-63.88h.62z" fill="#46b8d0"/><path d="m85.54 141.46-.42.28-43.4-64.16h.61z" fill="#45b7d0"/><path d="m85.12 141.74-.42.28-43.59-64.44h.61z" fill="#44b6d1"/><path d="m84.7 142.02-.42.29-43.78-64.73h.61z" fill="#43b5d1"/><path d="m84.28 142.31-.42.28-43.97-65.01h.61z" fill="#42b4d1"/><path d="m83.86 142.59-.41.28-44.17-65.29h.61z" fill="#41b3d2"/><path d="m83.45 142.87-.42.29-44.36-65.58h.61z" fill="#40b3d2"/><path d="m83.03 143.16-.42.28-44.55-65.86h.61z" fill="#3fb2d2"/><path d="m82.61 143.44-.42.28-44.74-66.14h.61z" fill="#3eb1d2"/><path d="m82.19 143.72-.42.28-44.93-66.42h.61z" fill="#3db0d3"/><path d="m81.77 144-.42.29-45.12-66.71h.61z" fill="#3cafd3"/><path d="m81.35 144.29-.42.28-45.31-66.99h.61z" fill="#3baed3"/><path d="m80.93 144.57-.42.28-45.5-67.27h.61z" fill="#3aadd4"/><path d="m80.51 144.85-.42.29-45.69-67.56h.61z" fill="#39acd4"/><path d="m80.09 145.14-.42.28-45.89-67.84h.62z" fill="#38acd4"/><path d="m79.67 145.42-.41.29-46.09-68.13h.61z" fill="#37abd4"/><path d="m79.26 145.71-.42.28-46.28-68.41h.61z" fill="#36aad5"/><path d="m78.84 145.99-.42.28-46.47-68.69h.61z" fill="#35a9d5"/><path d="m78.42 146.27-.42.29-46.66-68.98h.61z" fill="#34a8d5"/><path d="m78 146.56-.42.28-46.85-69.26h.61z" fill="#33a7d6"/><path d="m77.58 146.84-.42.28-47.04-69.54h.61z" fill="#32a6d6"/><path d="m77.16 147.12-.42.29-47.23-69.83h.61z" fill="#30a6d6"/><path d="m76.74 147.41-.42.28-47.42-70.11h.61z" fill="#2fa5d6"/><path d="m76.32 147.69-.42.28-47.61-70.39h.61z" fill="#2ea4d7"/><path d="m75.9 147.97-.42.29-47.8-70.68h.61z" fill="#2da3d7"/><path d="m75.48 148.26-.41.28-48-70.96h.61z" fill="#2ca2d7"/><path d="m75.07 148.54-.42.28-48.2-71.24h.62z" fill="#2ba1d8"/><path d="m74.65 148.82-.42.29-48.39-71.53h.61z" fill="#2aa0d8"/><path d="m74.23 149.11-.42.28-48.58-71.81h.61z" fill="#29a0d8"/><path d="m73.81 149.39-.42.28-48.77-72.09h.61z" fill="#289fd8"/><path d="m73.39 149.67-.42.29-48.96-72.38h.61z" fill="#279ed9"/><path d="m72.97 149.96-.42.28-49.15-72.66h.61z" fill="#269dd9"/><path d="m72.55 150.24-.42.28-49.34-72.94h.61z" fill="#259cd9"/><path d="m72.13 150.52-.42.29-49.53-73.23h.61z" fill="#249bda"/><path d="m71.71 150.81-.41.28-49.73-73.51h.61z" fill="#239ada"/><path d="m71.3 151.09-.42.29-49.92-73.8h.61z" fill="#2299da"/><path d="m70.88 151.38-.42.28-50.11-74.08h.61z" fill="#2199da"/><path d="m70.46 151.66-.42.28-50.3-74.36h.61z" fill="#2098db"/><path d="m70.04 151.94-.42.28-50.49-74.64h.61z" fill="#1f97db"/><path d="m69.62 152.22-.42.29-50.68-74.93h.61z" fill="#1e96db"/><path d="m69.2 152.51-.42.28-50.88-75.21h.62z" fill="#1d95dc"/><path d="m68.78 152.79-.42.29-51.07-75.5h.61z" fill="#1c94dc"/><path d="m68.36 153.08-.42.28-51.26-75.78h.61z" fill="#1b93dc"/><path d="m67.94 153.36-.42.28-51.45-76.06h.61z" fill="#1a93dc"/><path d="m67.52 153.64-.11.08h-.44l-51.51-76.14h.61z" fill="#1992dd"/><path d="m66.36 153.72-51.51-76.14h.61l51.51 76.14z" fill="#1891dd"/><path d="m65.75 153.72-51.51-76.14h.61l51.51 76.14z" fill="#1790dd"/><path d="m65.13 153.72-51.5-76.14h.61l51.51 76.14z" fill="#168fde"/><path d="m64.52 153.72-51.5-76.14h.61l51.5 76.14z" fill="#158ede"/><path d="m63.91 153.72-51.5-76.14h.61l51.5 76.14z" fill="#148dde"/><path d="m63.3 153.72-51.5-76.14h.61l51.5 76.14z" fill="#138cdf"/><path d="m62.69 153.72-51.5-76.14h.61l51.5 76.14z" fill="#128cdf"/><path d="m62.08 153.72-51.5-76.14h.61l51.5 76.14z" fill="#118bdf"/><path d="m61.47 153.72-51.51-76.14h.62l51.5 76.14z" fill="#108adf"/><path d="m60.86 153.72-51.51-76.14h.61l51.51 76.14z" fill="#0f89e0"/><path d="m60.25 153.72-51.51-76.14h.61l51.51 76.14z" fill="#0e88e0"/><path d="m59.64 153.72-51.51-76.14h.61l51.51 76.14z" fill="#0d87e0"/><path d="m59.03 153.72-51.51-76.14h.61l51.51 76.14z" fill="#0c86e1"/><path d="m58.42 153.72-51.51-76.14h.61l51.51 76.14z" fill="#0b86e1"/><path d="m57.8 153.72-51.5-76.14h.61l51.51 76.14z" fill="#0a85e1"/><path d="m57.19 153.72-51.5-76.14h.61l51.5 76.14z" fill="#0984e1"/><path d="m56.58 153.72-51.5-76.14h.61l51.5 76.14z" fill="#0883e2"/><path d="m55.97 153.72-51.5-76.14h.61l51.5 76.14z" fill="#0782e2"/><path d="m55.36 153.72-51.5-76.14h.61l51.5 76.14z" fill="#0681e2"/><path d="m54.75 153.72-51.5-76.14h.61l51.5 76.14z" fill="#0580e3"/><path d="m54.14 153.72-51.5-76.14h.61l51.5 76.14z" fill="#047fe3"/><path d="m53.53 153.72-51.42-76.02v-.12h.53l51.5 76.14z" fill="#037fe3"/><path d="m52.92 153.72-50.81-75.11v-.91l51.42 76.02z" fill="#027ee3"/><path d="m52.31 153.72-50.2-74.21v-.9l50.81 75.11z" fill="#017de4"/><g fill="#007ce4"><path d="m51.7 153.72-49.59-73.31v-.9l50.2 74.21z"/><path d="m2.11 80.41 49.59 73.31h-49.59z"/></g></g><g clip-path="url(#c)"><path d="m0 83.73 40.95 22.41-2.99 5.48h-37.96z" fill="#8bffbb"/><path d="m0 83.28 41.14 22.52-.19.34-40.95-22.41z" fill="#8bffbb"/><path d="m0 82.83 41.33 22.62-.19.35-41.14-22.52z" fill="#8afebb"/><path d="m0 82.39 41.52 22.71-.19.35-41.33-22.62z" fill="#89fdbc"/><path d="m0 81.94 41.71 22.82-.19.34-41.52-22.71z" fill="#88fcbc"/><path d="m0 81.49 41.9 22.92-.19.35-41.71-22.82z" fill="#87fbbc"/><path d="m0 81.04 42.09 23.03-.19.34-41.9-22.92z" fill="#87fabc"/><path d="m0 80.59 42.28 23.13-.19.35-42.09-23.03z" fill="#86f9bd"/><path d="m0 80.14 42.47 23.24-.19.34-42.28-23.13z" fill="#85f8bd"/><path d="m0 79.69 42.66 23.34-.19.35-42.47-23.24z" fill="#84f7bd"/><path d="m0 79.24 42.85 23.44-.19.35-42.66-23.34z" fill="#83f6be"/><path d="m0 78.79 43.03 23.55-.18.34-42.85-23.44z" fill="#82f5be"/><path d="m0 78.34 43.22 23.65-.19.35-43.03-23.55z" fill="#81f4be"/><path d="m0 77.89 43.41 23.76-.19.34-43.22-23.65z" fill="#80f3be"/><path d="m0 77.44 43.6 23.86-.19.35-43.41-23.76z" fill="#7ff2bf"/><path d="m0 76.99 43.79 23.96-.19.35-43.6-23.86z" fill="#7ff1bf"/><path d="m0 76.54 43.98 24.07-.19.34-43.79-23.96z" fill="#7ef0bf"/><path d="m0 76.09 44.17 24.17-.19.35-43.98-24.07z" fill="#7defc0"/><path d="m0 75.64 44.36 24.28-.19.34-44.17-24.17z" fill="#7ceec0"/><path d="m0 75.19 44.55 24.38-.19.35-44.36-24.28z" fill="#7bedc0"/><path d="m0 74.75 44.74 24.47-.19.35-44.55-24.38z" fill="#7aecc0"/><path d="m0 74.3 44.93 24.58-.19.34-44.74-24.47z" fill="#79ebc1"/><path d="m0 73.85 45.12 24.68-.19.35-44.93-24.58z" fill="#78eac1"/><path d="m0 73.4 45.31 24.79-.19.34-45.12-24.68z" fill="#77e9c1"/><path d="m0 72.95 45.49 24.89-.18.35-45.31-24.79z" fill="#77e8c2"/><path d="m0 72.5 45.68 25-.19.34-45.49-24.89z" fill="#76e6c2"/><path d="m0 72.05 45.87 25.1-.19.35-45.68-25z" fill="#75e5c2"/><path d="m0 71.6 46.06 25.21-.19.34-45.87-25.1z" fill="#74e4c2"/><path d="m0 71.15 46.25 25.31-.19.35-46.06-25.21z" fill="#73e3c3"/><path d="m0 70.7 46.44 25.41-.19.35-46.25-25.31z" fill="#72e2c3"/><path d="m0 70.25 46.63 25.52-.19.34-46.44-25.41z" fill="#71e1c3"/><path d="m0 69.8 46.82 25.62-.19.35-46.63-25.52z" fill="#70e0c3"/><path d="m0 69.35 47.01 25.73-.19.34-46.82-25.62z" fill="#6fdfc4"/><path d="m0 68.91 47.2 25.82-.19.35-47.01-25.73z" fill="#6edec4"/><path d="m0 68.45 47.39 25.93-.19.35-47.2-25.82z" fill="#6eddc4"/><path d="m0 68.01 47.58 26.03-.19.34-47.39-25.93z" fill="#6ddcc5"/><path d="m0 67.56 47.77 26.13-.19.35-47.58-26.03z" fill="#6cdbc5"/><path d="m0 67.11 47.95 26.24-.18.34-47.77-26.13z" fill="#6bdac5"/><path d="m0 66.66 48.14 26.34-.19.35-47.95-26.24z" fill="#6ad9c5"/><path d="m0 66.21 48.33 26.45-.19.34-48.14-26.34z" fill="#69d8c6"/><path d="m0 65.76 48.52 26.55-.19.35-48.33-26.45z" fill="#68d7c6"/><path d="m0 65.31 48.71 26.65-.19.35-48.52-26.55z" fill="#67d6c6"/><path d="m0 64.86 48.9 26.76-.19.34-48.71-26.65z" fill="#66d5c7"/><path d="m0 64.41 49.09 26.86-.19.35-48.9-26.76z" fill="#66d4c7"/><path d="m0 63.96 49.28 26.97-.19.34-49.09-26.86z" fill="#65d3c7"/><path d="m0 63.51 49.47 27.07-.19.35-49.28-26.97z" fill="#64d2c7"/><path d="m0 63.06 49.66 27.17-.19.35-49.47-27.07z" fill="#63d1c8"/><path d="m0 62.61 49.85 27.28-.19.34-49.66-27.17z" fill="#62d0c8"/><path d="m0 62.19 50.02 27.37-.17.33-49.85-27.28z" fill="#62d0c8"/><path d="m0 61.77 50.2 27.46-.18.33-50.02-27.37z" fill="#61cfc8"/><path d="m0 61.34 50.38 27.57-.18.32-50.2-27.46z" fill="#60cec9"/><path d="m0 60.92 50.56 27.66-.18.33-50.38-27.57z" fill="#5fcdc9"/><path d="m0 60.49 50.74 27.76-.18.33-50.56-27.66z" fill="#5ecdc9"/><path d="m0 60.07 50.92 27.86-.18.32-50.74-27.76z" fill="#5dccc9"/><path d="m0 59.64 51.1 27.96-.18.33-50.92-27.86z" fill="#5ccbca"/><path d="m0 59.22 51.28 28.06-.18.32-51.1-27.96z" fill="#5bcaca"/><path d="m0 58.79 51.45 28.16-.17.33-51.28-28.06z" fill="#5ac9ca"/><path d="m0 58.37 51.63 28.25-.18.33-51.45-28.16z" fill="#59c8cb"/><path d="m0 57.95 51.81 28.35-.18.32-51.63-28.25z" fill="#58c7cb"/><path d="m0 57.52 51.99 28.45-.18.33-51.81-28.35z" fill="#57c6cb"/><path d="m0 57.1 52.17 28.54-.18.33-51.99-28.45z" fill="#56c6cb"/><path d="m0 56.67 52.35 28.65-.18.32-52.17-28.54z" fill="#55c5cc"/><path d="m0 56.25 52.53 28.74-.18.33-52.35-28.65z" fill="#54c4cc"/><path d="m0 55.82 52.7 28.84-.17.33-52.53-28.74z" fill="#53c3cc"/><path d="m0 55.4 52.88 28.94-.18.32-52.7-28.84z" fill="#52c2cd"/><path d="m0 54.98 53.06 29.03-.18.33-52.88-28.94z" fill="#51c1cd"/><path d="m0 54.55 53.24 29.13-.18.33-53.06-29.03z" fill="#50c0cd"/><path d="m0 54.13 53.42 29.23-.18.32-53.24-29.13z" fill="#4fc0cd"/><path d="m0 53.7 53.6 29.33-.18.33-53.42-29.23z" fill="#4ebfce"/><path d="m0 53.28 53.78 29.42-.18.33-53.6-29.33z" fill="#4dbece"/><path d="m0 52.85 53.96 29.53-.18.32-53.78-29.42z" fill="#4cbdce"/><path d="m0 52.43 54.13 29.62-.17.33-53.96-29.53z" fill="#4bbccf"/><path d="m0 52.01 54.31 29.71-.18.33-54.13-29.62z" fill="#4abbcf"/><path d="m0 51.58 54.49 29.82-.18.32-54.31-29.71z" fill="#49bacf"/><path d="m0 51.16 54.67 29.91-.18.33-54.49-29.82z" fill="#48b9d0"/><path d="m0 50.73 54.85 30.02-.18.32-54.67-29.91z" fill="#47b9d0"/><path d="m0 50.31 55.03 30.11-.18.33-54.85-30.02z" fill="#46b8d0"/><path d="m0 49.88 55.21 30.21-.18.33-55.03-30.11z" fill="#45b7d0"/><path d="m0 49.46 55.39 30.31-.18.32-55.21-30.21z" fill="#44b6d1"/><path d="m0 49.03 55.56 30.41-.17.33-55.39-30.31z" fill="#43b5d1"/><path d="m0 48.94.14-.25 55.6 30.42-.18.33-55.56-30.41z" fill="#42b4d1"/><path d="m27.84 32.04h.37v63.38h-.37z" fill="#41b3d2" transform="matrix(.47991729 -.87731374 .87731374 .47991729 -41.34 57.74)"/><path d="m28.02 31.72h.37v63.38h-.37z" fill="#40b3d2" transform="matrix(.47991729 -.87731374 .87731374 .47991729 -40.96 57.73)"/><path d="m28.2 31.39h.37v63.38h-.37z" fill="#3fb2d2" transform="matrix(.48052965 -.87697848 .87697848 .48052965 -40.58 57.66)"/><path d="m28.38 31.06h.37v63.38h-.37z" fill="#3eb1d2" transform="matrix(.47991729 -.87731374 .87731374 .47991729 -40.2 57.7)"/><path d="m28.56 30.74h.37v63.38h-.37z" fill="#3db0d3" transform="matrix(.4800704 -.87722997 .87722997 .4800704 -39.82 57.68)"/><path d="m28.74 30.41h.37v63.38h-.37z" fill="#3cafd3" transform="matrix(.47991729 -.87731374 .87731374 .47991729 -39.44 57.68)"/><path d="m28.92 30.08h.37v63.38h-.37z" fill="#3baed3" transform="matrix(.47991729 -.87731374 .87731374 .47991729 -39.06 57.66)"/><path d="m29.1 29.76h.37v63.38h-.37z" fill="#3aadd4" transform="matrix(.4802235 -.87714616 .87714616 .4802235 -38.68 57.63)"/><path d="m29.27 29.43h.37v63.38h-.37z" fill="#39acd4" transform="matrix(.48037658 -.87706234 .87706234 .48037658 -38.3 57.59)"/><path d="m29.45 29.1h.37v63.38h-.37z" fill="#38acd4" transform="matrix(.47991729 -.87731374 .87731374 .47991729 -37.92 57.62)"/><path d="m29.63 28.78h.37v63.38h-.37z" fill="#37abd4" transform="matrix(.4800704 -.87722997 .87722997 .4800704 -37.54 57.6)"/><path d="m29.81 28.45h.37v63.38h-.37z" fill="#36aad5" transform="matrix(.47991729 -.87731374 .87731374 .47991729 -37.16 57.6)"/><path d="m29.99 28.12h.37v63.38h-.37z" fill="#35a9d5" transform="matrix(.4800704 -.87722997 .87722997 .4800704 -36.78 57.58)"/><path d="m30.17 27.8h.37v63.38h-.37z" fill="#34a8d5" transform="matrix(.48037658 -.87706234 .87706234 .48037658 -36.4 57.53)"/><path d="m30.35 27.47h.37v63.38h-.37z" fill="#33a7d6" transform="matrix(.47991729 -.87731374 .87731374 .47991729 -36.03 57.56)"/><path d="m30.52 27.15h.37v63.38h-.37z" fill="#32a6d6" transform="matrix(.4800704 -.87722997 .87722997 .4800704 -35.65 57.54)"/><path d="m30.7 26.82h.37v63.38h-.37z" fill="#30a6d6" transform="matrix(.4800704 -.87722997 .87722997 .4800704 -35.27 57.52)"/><path d="m30.88 26.49h.37v63.38h-.37z" fill="#2fa5d6" transform="matrix(.4800704 -.87722997 .87722997 .4800704 -34.89 57.51)"/><path d="m31.06 26.17h.37v63.38h-.37z" fill="#2ea4d7" transform="matrix(.47991729 -.87731374 .87731374 .47991729 -34.51 57.51)"/><path d="m31.24 25.84h.37v63.38h-.37z" fill="#2da3d7" transform="matrix(.48037658 -.87706234 .87706234 .48037658 -34.13 57.45)"/><path d="m31.42 25.51h.37v63.38h-.37z" fill="#2ca2d7" transform="matrix(.4800704 -.87722997 .87722997 .4800704 -33.75 57.47)"/><path d="m31.6 25.19h.37v63.38h-.37z" fill="#2ba1d8" transform="matrix(.47991729 -.87731374 .87731374 .47991729 -33.37 57.47)"/><path d="m31.78 24.86h.37v63.38h-.37z" fill="#2aa0d8" transform="matrix(.47991729 -.87731374 .87731374 .47991729 -32.99 57.45)"/><path d="m31.95 24.53h.37v63.38h-.37z" fill="#29a0d8" transform="matrix(.48052965 -.87697848 .87697848 .48052965 -32.61 57.39)"/><path d="m32.13 24.21h.37v63.38h-.37z" fill="#289fd8" transform="matrix(.47991729 -.87731374 .87731374 .47991729 -32.23 57.43)"/><path d="m32.31 23.88h.37v63.38h-.37z" fill="#279ed9" transform="matrix(.4800704 -.87722997 .87722997 .4800704 -31.85 57.4)"/><path d="m32.49 23.55h.37v63.38h-.37z" fill="#269dd9" transform="matrix(.47792549 -.87840038 .87840038 .47792549 -31.47 57.54)"/><path d="m32.67 23.23h.37v63.38h-.37z" fill="#259cd9" transform="matrix(.47991729 -.87731374 .87731374 .47991729 -31.09 57.39)"/><path d="m32.85 22.9h.37v63.38h-.37z" fill="#249bda" transform="matrix(.4800704 -.87722997 .87722997 .4800704 -30.71 57.37)"/><path d="m33.03 22.57h.37v63.38h-.37z" fill="#239ada" transform="matrix(.48037658 -.87706234 .87706234 .48037658 -30.34 57.32)"/><path d="m33.2 22.25h.37v63.38h-.37z" fill="#2299da" transform="matrix(.47991729 -.87731374 .87731374 .47991729 -29.96 57.35)"/><path d="m33.38 21.92h.37v63.38h-.37z" fill="#2199da" transform="matrix(.4800704 -.87722997 .87722997 .4800704 -29.58 57.33)"/><path d="m33.56 21.59h.37v63.38h-.37z" fill="#2098db" transform="matrix(.4800704 -.87722997 .87722997 .4800704 -29.2 57.31)"/><path d="m33.74 21.27h.37v63.38h-.37z" fill="#1f97db" transform="matrix(.4800704 -.87722997 .87722997 .4800704 -28.82 57.3)"/><path d="m33.92 20.94h.37v63.38h-.37z" fill="#1e96db" transform="matrix(.47991729 -.87731374 .87731374 .47991729 -28.44 57.3)"/><path d="m34.1 20.61h.37v63.38h-.37z" fill="#1d95dc" transform="matrix(.48037658 -.87706234 .87706234 .48037658 -28.06 57.24)"/><path d="m34.28 20.29h.37v63.38h-.37z" fill="#1c94dc" transform="matrix(.4800704 -.87722997 .87722997 .4800704 -27.68 57.26)"/><path d="m34.46 19.96h.37v63.38h-.37z" fill="#1b93dc" transform="matrix(.47991729 -.87731374 .87731374 .47991729 -27.3 57.26)"/><path d="m34.63 19.63h.37v63.38h-.37z" fill="#1a93dc" transform="matrix(.47991729 -.87731374 .87731374 .47991729 -26.92 57.24)"/><path d="m7.11 35.95.18-.33 55.49 30.37v.25l-.07.14z" fill="#1992dd"/><path d="m7.29 35.62.17-.32 55.32 30.27v.42z" fill="#1891dd"/><path d="m7.46 35.3.18-.33 55.14 30.17v.43z" fill="#1790dd"/><path d="m7.64 34.97.18-.33 54.96 30.08v.42z" fill="#168fde"/><path d="m7.82 34.64.18-.32 54.78 29.97v.43z" fill="#158ede"/><path d="m8 34.32.18-.33 54.6 29.88v.42z" fill="#148dde"/><path d="m8.18 33.99.18-.33 54.42 29.78v.43z" fill="#138cdf"/><path d="m8.36 33.66.18-.32 54.24 29.68v.42z" fill="#128cdf"/><path d="m8.54 33.34.18-.33 54.06 29.59v.42z" fill="#118bdf"/><path d="m8.72 33.01.01-.03h.7l53.35 29.19v.43z" fill="#108adf"/><path d="m10.2 32.98 52.58 28.77v.42l-53.35-29.19z" fill="#0f89e0"/><path d="m10.98 32.98 51.8 28.34v.43l-52.58-28.77z" fill="#0e88e0"/><path d="m11.75 32.98 51.03 27.92v.42l-51.8-28.34z" fill="#0d87e0"/><path d="m12.53 32.98 50.25 27.49v.43l-51.03-27.92z" fill="#0c86e1"/><path d="m13.3 32.98 49.48 27.07v.42l-50.25-27.49z" fill="#0b86e1"/><path d="m14.08 32.98 48.7 26.65v.42l-49.48-27.07z" fill="#0a85e1"/><path d="m14.86 32.98 47.92 26.22v.43l-48.7-26.65z" fill="#0984e1"/><path d="m15.63 32.98 47.15 25.8v.42l-47.92-26.22z" fill="#0883e2"/><path d="m16.41 32.98 46.37 25.37v.43l-47.15-25.8z" fill="#0782e2"/><path d="m17.18 32.98 45.6 24.95v.42l-46.37-25.37z" fill="#0681e2"/><path d="m17.96 32.98 44.82 24.52v.43l-45.6-24.95z" fill="#0580e3"/><path d="m18.73 32.98 44.05 24.1v.42l-44.82-24.52z" fill="#047fe3"/><path d="m19.51 32.98 43.27 23.68v.42l-44.05-24.1z" fill="#037fe3"/><path d="m20.28 32.98 42.5 23.25v.43l-43.27-23.68z" fill="#027ee3"/><path d="m21.06 32.98 41.72 22.83v.42l-42.5-23.25z" fill="#017de4"/><g fill="#007ce4"><path d="m21.84 32.98 40.94 22.4v.43l-41.72-22.83z"/><path d="m62.78 55.38-40.94-22.4h40.94z"/></g></g></svg>