<svg viewBox="0 0 40 24.03" xmlns="http://www.w3.org/2000/svg"><g fill="#0071b7" fill-rule="evenodd"><path d="m19.88 4h17a9.79 9.79 0 0 0 1.33 0 2.06 2.06 0 0 0 1.79-1.92 2 2 0 0 0 -1.8-2.08 6.52 6.52 0 0 0 -1 0h-34.34a6.51 6.51 0 0 0 -1.17 0 2 2 0 0 0 -1.69 2 2 2 0 0 0 1.71 2 8.44 8.44 0 0 0 1.29 0zm-.05 10h17.17a9.11 9.11 0 0 0 1.17 0 2 2 0 0 0 .09-4 7.59 7.59 0 0 0 -1.17 0h-34.18a7.46 7.46 0 0 0 -1.16 0 2 2 0 0 0 .08 4 9 9 0 0 0 1.17 0zm0 10h17.17a7.37 7.37 0 0 0 1.33 0 2 2 0 0 0 1.67-2 2.08 2.08 0 0 0 -1.61-1.89 5.61 5.61 0 0 0 -1.16 0h-34.52a6.68 6.68 0 0 0 -1 0 2.07 2.07 0 0 0 -1.71 1.89 2 2 0 0 0 1.69 2 8.44 8.44 0 0 0 1.31 0z"/><path d="m19.88 4h-16.88a8.44 8.44 0 0 1 -1.29 0 2 2 0 0 1 -1.71-2 2 2 0 0 1 1.69-2 6.51 6.51 0 0 1 1.17 0h34.35a6.52 6.52 0 0 1 1 0 2 2 0 0 1 1.79 2.08 2.06 2.06 0 0 1 -1.78 1.92 9.79 9.79 0 0 1 -1.33 0z"/><path d="m19.83 14h-16.83a9 9 0 0 1 -1.16 0 2 2 0 0 1 -.08-4 7.46 7.46 0 0 1 1.16 0h34.17a7.59 7.59 0 0 1 1.17 0 2 2 0 0 1 -.09 4 9.11 9.11 0 0 1 -1.17 0z"/><path d="m19.86 24h-16.86a8.44 8.44 0 0 1 -1.33 0 2 2 0 0 1 -1.67-2 2.07 2.07 0 0 1 1.71-2 6.68 6.68 0 0 1 1 0h34.52a5.61 5.61 0 0 1 1.16 0 2.08 2.08 0 0 1 1.61 2 2 2 0 0 1 -1.63 2 7.37 7.37 0 0 1 -1.37 0z"/></g></svg>