<svg viewBox="0 0 60 60" xmlns="http://www.w3.org/2000/svg"><circle cx="30" cy="30" fill="#3cc" r="30"/><g fill="#fff"><path d="m30.06 42.5c-4.92 0-9.84 0-14.76 0a3.44 3.44 0 0 1 -3.52-2.14 20.38 20.38 0 0 1 36.22-18.61 21.15 21.15 0 0 1 2.37 8.56 19.56 19.56 0 0 1 -2.58 10.69 2.85 2.85 0 0 1 -2.79 1.51c-5-.04-10-.01-14.94-.01zm15.54-2.29a17.8 17.8 0 0 0 -4.1-22.92c-7.23-5.88-16.91-5.83-24.18 1.06-6.36 6-6.82 15.82-2.85 21.86z"/><path d="m34.71 34c-1.28 3.18-2.77 4.24-5.35 4a4.52 4.52 0 0 1 -4-3.66 4.59 4.59 0 0 1 2.47-5c2.29-1.11 4.19-.52 6.44 2.08 2.46-.42 5-.87 7.58-1.28 1.09-.17 2.27-.46 2.82 1-.18 1.29-1.24 1.35-2.11 1.53-1.76.36-3.55.58-5.33.88-.81.11-1.65.29-2.52.45zm-4.64-2.69a2.13 2.13 0 0 0 -.07 4.27 2.18 2.18 0 0 0 2.09-2.17 2.21 2.21 0 0 0 -2.02-2.09z"/><path d="m31.78 17.83a1.76 1.76 0 0 1 -1.78 1.71 2 2 0 0 1 -1.83-1.79 2 2 0 0 1 2-1.8 1.73 1.73 0 0 1 1.61 1.88z"/><path d="m18.31 31.12a1.73 1.73 0 0 1 -1.64 1.88 2 2 0 0 1 -2-1.8 2 2 0 0 1 1.83-1.79 1.74 1.74 0 0 1 1.81 1.71z"/><path d="m22.32 21.73a1.91 1.91 0 0 1 -2.07 1.67 1.74 1.74 0 1 1 .31-3.46 1.87 1.87 0 0 1 1.76 1.79z"/><path d="m39.57 23.4a1.73 1.73 0 1 1 -.19-3.46 1.9 1.9 0 0 1 2 1.73 1.88 1.88 0 0 1 -1.81 1.73z"/></g></svg>