<svg xmlns="http://www.w3.org/2000/svg" viewBox="0 0 30.52 40"><defs><style>.cls-1{fill:#0071b7;fill-rule:evenodd;}</style></defs><g id="圖層_2" data-name="圖層 2"><g id="Layer_1" data-name="Layer 1"><path class="cls-1" d="M30.51,17.59a4.09,4.09,0,0,0-4.21-4.27,2,2,0,0,1-1.53-.2c0-1.07,0-2.13,0-3.18a15.51,15.51,0,0,0-.32-2.81A9.47,9.47,0,0,0,13.15.24,9.58,9.58,0,0,0,5.74,9.46c0,1.22,0,2.43,0,3.87-.65,0-1.17,0-1.69,0a4,4,0,0,0-4,4.1q.12,9.2,0,18.39A4.15,4.15,0,0,0,4.16,40q11.1-.11,22.19,0a4.15,4.15,0,0,0,4.16-4.18Q30.38,26.72,30.51,17.59ZM15.21,30.46a3.81,3.81,0,1,1,.09-7.61,3.81,3.81,0,0,1-.09,7.61Zm-6-17.27c.12-1.66.13-3.24.38-4.78A5.11,5.11,0,0,1,13.31,4c3.58-1,7.14.88,7.67,4.6.22,1.49.24,3,.34,4.49A87.89,87.89,0,0,1,9.17,13.19Z"/></g></g></svg>