<svg viewBox="0 0 40 40" xmlns="http://www.w3.org/2000/svg"><path d="m27 25.22a1.07 1.07 0 0 0 1.3.61 2.08 2.08 0 0 1 1.84.86c2.83 2.88 5.71 5.71 8.53 8.59a4.58 4.58 0 0 1 1.21 1.72 2.17 2.17 0 0 1 -.88 2.58 2.46 2.46 0 0 1 -2.73 0 12.69 12.69 0 0 1 -1.6-1.42c-2.5-2.48-5-5-7.47-7.44a3.22 3.22 0 0 1 -1.35-2.84c0-.26-.24-.56-.47-1-4.38 3.35-9.15 4.56-14.38 3.12a14.67 14.67 0 0 1 -8.57-6.4 15.27 15.27 0 0 1 22.87-19.83 14.91 14.91 0 0 1 5.19 10.37c.31 3.86-.49 6.2-3.49 11.08zm-11.93.61a10.55 10.55 0 1 0 -10.35-10.71 10.55 10.55 0 0 0 10.39 10.71z" fill="#fff" fill-rule="evenodd"/></svg>