<svg viewBox="0 0 40 40" xmlns="http://www.w3.org/2000/svg"><g fill="#0071b7" fill-rule="evenodd"><path d="m37.22 0h-34.42c-2.01 0-2.8.77-2.8 2.77q0 6.11 0 12.23c0 2 .77 2.79 2.77 2.8h34.42c2 0 2.8-.77 2.81-2.77v-12.24c0-2.01-.78-2.79-2.78-2.79zm-28.51 13.33a4.61 4.61 0 0 1 -4.26-4.58 4.64 4.64 0 0 1 4.55-4.31 4.66 4.66 0 0 1 4.36 4.68 4.64 4.64 0 0 1 -4.65 4.21z"/><path d="m37.23 22.22h-34.41c-2.03 0-2.82.78-2.82 2.78q0 6.11 0 12.21c0 2 .77 2.79 2.77 2.79h34.41c2 0 2.81-.77 2.81-2.76q0-6.1 0-12.21c.01-2.03-.76-2.81-2.76-2.81zm-28.23 13.33a4.6 4.6 0 0 1 -4.52-4.32 4.64 4.64 0 0 1 4.27-4.57 4.7 4.7 0 0 1 4.63 4.42 4.68 4.68 0 0 1 -4.38 4.47z"/></g></svg>