<svg xmlns="http://www.w3.org/2000/svg" viewBox="0 0 40 40"><defs><style>.cls-1{fill:#0071b7;fill-rule:evenodd;}</style></defs><g id="圖層_2" data-name="圖層 2"><g id="Layer_1" data-name="Layer 1"><path class="cls-1" d="M37.22,0H2.8C.79,0,0,.77,0,2.77Q0,8.88,0,15c0,2,.77,2.79,2.77,2.8H37.19c2,0,2.8-.77,2.81-2.77V2.79C40,.78,39.22,0,37.22,0ZM8.71,13.33A4.61,4.61,0,0,1,4.45,8.75,4.64,4.64,0,0,1,9,4.44a4.66,4.66,0,0,1,4.36,4.68A4.64,4.64,0,0,1,8.71,13.33Z"/><path class="cls-1" d="M37.23,22.22H2.82C.79,22.22,0,23,0,25q0,6.11,0,12.21C0,39.21.77,40,2.77,40H37.18c2,0,2.81-.77,2.81-2.76q0-6.1,0-12.21C40,23,39.23,22.22,37.23,22.22ZM9,35.55a4.6,4.6,0,0,1-4.52-4.32,4.64,4.64,0,0,1,4.27-4.57,4.7,4.7,0,0,1,4.63,4.42A4.68,4.68,0,0,1,9,35.55Z"/></g></g></svg>