<svg viewBox="0 0 38.3 39.68" xmlns="http://www.w3.org/2000/svg"><path d="m28.24 31.67-3.4 2a38.38 38.38 0 0 1 -.75 4.52 2.29 2.29 0 0 1 -1.49 1.41 55.1 55.1 0 0 1 -6.92 0 2.12 2.12 0 0 1 -1.45-1.27 41.23 41.23 0 0 1 -.76-4.62l-3.44-2c-1.36.54-2.81 1.06-4.2 1.69a1.44 1.44 0 0 1 -2.16-.7c-1.08-2-2.2-3.93-3.35-5.86a1.46 1.46 0 0 1 .5-2.23c1.16-.82 2.27-1.73 3.46-2.65v-4.2a34.61 34.61 0 0 1 -3.5-2.76 2.21 2.21 0 0 1 -.41-2c1-2 2.2-3.93 3.28-5.9a1.42 1.42 0 0 1 2.13-.76c1.4.64 2.85 1.15 4.28 1.72l3.39-1.94a39.75 39.75 0 0 1 .77-4.62 2.2 2.2 0 0 1 1.56-1.38 47.52 47.52 0 0 1 6.75 0 2.27 2.27 0 0 1 1.55 1.35 37.38 37.38 0 0 1 .75 4.53l3.43 2c1.3-.52 2.74-1 4.13-1.67a1.5 1.5 0 0 1 2.28.75c1 1.93 2.13 3.84 3.26 5.72a1.51 1.51 0 0 1 -.51 2.35c-1.17.81-2.27 1.72-3.43 2.61v4.16c1.17.9 2.31 1.84 3.52 2.69a1.45 1.45 0 0 1 .49 2.24c-1.12 1.88-2.22 3.78-3.26 5.72a1.49 1.49 0 0 1 -2.26.8c-1.39-.62-2.79-1.12-4.24-1.7zm-9-18.75a6.93 6.93 0 1 0 6.85 7 7 7 0 0 0 -6.87-7z" fill="#0071b7" fill-rule="evenodd"/></svg>