<svg viewBox="0 0 60 60" xmlns="http://www.w3.org/2000/svg"><circle cx="30" cy="30" fill="#f7da4b" r="30"/><g fill="#fff"><path d="m35.49 13.93a5.49 5.49 0 1 0 -7 5.27v16.24a1.47 1.47 0 0 0 2.94 0v-16.24a5.49 5.49 0 0 0 4.06-5.27z"/><path d="m46.86 45h-33.72a4.16 4.16 0 0 1 -3.85-2.05c-1-1.78-.63-4.31.92-6.76l5.79-9.11a7.05 7.05 0 0 1 5.66-3h2.63a1.25 1.25 0 0 1 0 2.5h-2.67a4.62 4.62 0 0 0 -3.55 1.8l-5.74 9.06c-1.17 1.85-1.27 3.45-.85 4.22a1.72 1.72 0 0 0 1.66.76h33.72a1.72 1.72 0 0 0 1.66-.76c.42-.77.32-2.37-.85-4.22l-5.74-9.06a4.62 4.62 0 0 0 -3.55-1.8h-2.64a1.25 1.25 0 0 1 0-2.5h2.64a7.05 7.05 0 0 1 5.66 3l5.75 9.07c1.55 2.45 1.89 5 .92 6.76a4.16 4.16 0 0 1 -3.85 2.09z"/></g></svg>