<svg viewBox="0 0 60 60" xmlns="http://www.w3.org/2000/svg"><circle cx="30" cy="30" fill="#d2d2d2" r="30"/><g fill="#fff"><path d="m42.93 21.88a12.26 12.26 0 0 0 -.35-2.46 13 13 0 0 0 -11.83-9.88h-.1-.11-1.09-.12-.08-.28-.42a11.28 11.28 0 0 0 -2.72.6 12.75 12.75 0 0 0 -5.14 3.35 13.42 13.42 0 0 0 -3 5 13.61 13.61 0 0 0 -.66 4.65 14 14 0 0 0 .33 2.58 13.64 13.64 0 0 0 2.15 4.75 33.28 33.28 0 0 0 2.54 3.12l.6.66c.71.8 1.45 1.62 2.14 2.44a20.44 20.44 0 0 1 3 4.61c.07.14.13.27.19.41s.15.36.24.55a1.93 1.93 0 0 0 1.78 1.19 1.92 1.92 0 0 0 1.78-1.15l.15-.37.07-.15a20.61 20.61 0 0 1 3.32-5.23c.68-.81 1.41-1.61 2.11-2.39.24-.28.49-.55.74-.83a30 30 0 0 0 2.3-2.85 13.88 13.88 0 0 0 1.81-3.64 14.28 14.28 0 0 0 .65-4.96zm-2.78 4.29a11.42 11.42 0 0 1 -1.53 3 27 27 0 0 1 -2.12 2.63l-.74.82c-.71.79-1.45 1.61-2.15 2.44a22.85 22.85 0 0 0 -3.61 5.74l-.17-.38a22.85 22.85 0 0 0 -3.28-5.11c-.71-.85-1.46-1.68-2.18-2.49l-.59-.66a30.24 30.24 0 0 1 -2.37-2.9 11 11 0 0 1 -2.09-6.14 11.07 11.07 0 0 1 .55-3.87 11.23 11.23 0 0 1 2.46-4.16 10.49 10.49 0 0 1 4.24-2.77 9.61 9.61 0 0 1 2.2-.49h.37.38.21.57.29a10.44 10.44 0 0 1 6.07 2.3 10.61 10.61 0 0 1 4 7.9 12.1 12.1 0 0 1 -.51 4.14z"/><path d="m30.18 15.09a7.37 7.37 0 0 0 -5.3 2 7.38 7.38 0 0 0 -.17 10.44 7.4 7.4 0 0 0 5.05 2.23h.24a7.31 7.31 0 0 0 5.08-2 7.39 7.39 0 0 0 2.28-5.28 7.36 7.36 0 0 0 -7.18-7.39zm3.36 11.05a5.13 5.13 0 1 1 -3.54-8.81h.13a5.11 5.11 0 0 1 3.42 8.81z"/><path d="m35.3 41.39a1 1 0 1 0 -.3 1.88c3.68.65 5.34 1.82 5.34 2.46 0 1-3.64 2.86-10.31 2.86s-10.35-1.89-10.35-2.86c0-.64 1.66-1.82 5.34-2.46a1 1 0 0 0 -.32-1.88c-4.41.76-6.94 2.34-6.94 4.34 0 3.13 6.16 4.77 12.24 4.77s12.23-1.64 12.23-4.77c0-2-2.53-3.58-6.93-4.34z"/></g></svg>