<svg viewBox="0 0 42.51 36.51" xmlns="http://www.w3.org/2000/svg"><g fill="#fff"><path d="m26.74 5.49a5.49 5.49 0 1 0 -7 5.26v16.25a1.48 1.48 0 0 0 2.95 0v-16.25a5.47 5.47 0 0 0 4.05-5.26z"/><path d="m38.12 36.51h-33.73a4.14 4.14 0 0 1 -3.84-2c-1-1.78-.64-4.31.92-6.76l5.74-9.07a7.09 7.09 0 0 1 5.66-3h2.64a1.25 1.25 0 1 1 0 2.5h-2.64a4.59 4.59 0 0 0 -3.54 1.82l-5.75 9c-1.17 1.84-1.26 3.44-.84 4.21a1.71 1.71 0 0 0 1.65.79h33.73a1.72 1.72 0 0 0 1.65-.76c.42-.77.33-2.37-.84-4.21l-5.75-9.03a4.61 4.61 0 0 0 -3.55-1.8h-2.63a1.25 1.25 0 0 1 0-2.5h2.63a7.1 7.1 0 0 1 5.67 3l5.7 9c1.55 2.45 1.9 5 .92 6.76a4.14 4.14 0 0 1 -3.8 2.05z"/></g></svg>