<svg viewBox="0 0 605.24 100" xmlns="http://www.w3.org/2000/svg"><path d="m555.72 0h-506.2c-27.35 0-49.52 20.15-49.52 45v10c0 24.85 22.17 45 49.52 45h506.2c27.35 0 49.52-20.15 49.52-45v-10c0-24.85-22.17-45-49.52-45z" fill="#0071b7"/><g fill="#fff" stroke="#fff" stroke-miterlimit="10"><path d="m129.21 59.07 8.25-21.48h3.06l8.79 21.48h-3.24l-2.5-6.5h-9l-2.36 6.5zm6.2-8.82h7.28l-2.24-6c-.69-1.8-1.19-3.29-1.53-4.45a27.86 27.86 0 0 1 -1.15 4.1z"/><path d="m164.39 53.37 2.6.34a6.77 6.77 0 0 1 -2.18 4.2 6.39 6.39 0 0 1 -4.3 1.51 6.64 6.64 0 0 1 -5.13-2.09 8.42 8.42 0 0 1 -1.94-6 11 11 0 0 1 .83-4.41 5.86 5.86 0 0 1 2.54-2.83 7.57 7.57 0 0 1 3.72-1 6.46 6.46 0 0 1 4.14 1.28 5.91 5.91 0 0 1 2.07 3.64l-2.57.4a4.22 4.22 0 0 0 -1.29-2.36 3.34 3.34 0 0 0 -2.25-.79 4.1 4.1 0 0 0 -3.24 1.43 6.78 6.78 0 0 0 -1.24 4.52 7 7 0 0 0 1.2 4.55 3.89 3.89 0 0 0 3.13 1.42 3.69 3.69 0 0 0 2.6-1 4.69 4.69 0 0 0 1.31-2.81z"/><path d="m178 56.71.38 2.33a9.5 9.5 0 0 1 -2 .23 4.56 4.56 0 0 1 -2.23-.45 2.49 2.49 0 0 1 -1.11-1.19 9.36 9.36 0 0 1 -.32-3.12v-8.95h-1.94v-2.05h1.94v-3.85l2.62-1.58v5.43h2.66v2.05h-2.65v9.1a4.36 4.36 0 0 0 .14 1.45 1 1 0 0 0 .45.51 1.72 1.72 0 0 0 .9.19 8.22 8.22 0 0 0 1.16-.1z"/><path d="m183.59 40.63v-3h2.64v3zm0 18.44v-15.56h2.64v15.56z"/><path d="m197.56 59.07-5.91-15.56h2.78l3.34 9.32c.36 1 .69 2.05 1 3.13.23-.82.56-1.8 1-3l3.45-9.49h2.71l-5.93 15.6z"/><path d="m221.39 57.15a9.62 9.62 0 0 1 -2.82 1.76 8.15 8.15 0 0 1 -2.9.51 5.66 5.66 0 0 1 -3.94-1.25 4.13 4.13 0 0 1 -1.38-3.2 4.24 4.24 0 0 1 .52-2.09 4.44 4.44 0 0 1 1.36-1.52 6.58 6.58 0 0 1 1.9-.86 18.79 18.79 0 0 1 2.34-.4 23.91 23.91 0 0 0 4.7-.9c0-.37 0-.59 0-.69a2.9 2.9 0 0 0 -.75-2.27 4.37 4.37 0 0 0 -3-.9 4.62 4.62 0 0 0 -2.75.66 3.94 3.94 0 0 0 -1.31 2.3l-2.56-.3a6.44 6.44 0 0 1 1.2-2.72 5.09 5.09 0 0 1 2.33-1.57 10.3 10.3 0 0 1 3.53-.55 9.41 9.41 0 0 1 3.24.47 4.27 4.27 0 0 1 1.83 1.18 4.17 4.17 0 0 1 .82 1.79 14.72 14.72 0 0 1 .13 2.44v3.51a37.68 37.68 0 0 0 .12 4.65 5.68 5.68 0 0 0 .67 1.87h-2.76a5.75 5.75 0 0 1 -.52-1.92zm-.22-5.89a19.6 19.6 0 0 1 -4.3 1 9.32 9.32 0 0 0 -2.3.53 2.26 2.26 0 0 0 -1 .85 2.32 2.32 0 0 0 .43 3 3.43 3.43 0 0 0 2.34.71 5.5 5.5 0 0 0 2.71-.67 4.07 4.07 0 0 0 1.74-1.82 6.47 6.47 0 0 0 .42-2.64z"/><path d="m236.68 56.71.38 2.33a9.43 9.43 0 0 1 -2 .23 4.52 4.52 0 0 1 -2.22-.45 2.56 2.56 0 0 1 -1.12-1.19 9.65 9.65 0 0 1 -.32-3.12v-8.95h-1.93v-2.05h1.93v-3.85l2.6-1.58v5.43h2.65v2.05h-2.65v9.1a4.66 4.66 0 0 0 .14 1.45 1 1 0 0 0 .46.51 1.72 1.72 0 0 0 .9.19 8.09 8.09 0 0 0 1.18-.1z"/><path d="m252.91 54.06 2.73.34a6.66 6.66 0 0 1 -2.39 3.7 8.09 8.09 0 0 1 -9.87-.78 8.23 8.23 0 0 1 -2-5.9 8.62 8.62 0 0 1 2-6.09 6.84 6.84 0 0 1 5.25-2.17 6.65 6.65 0 0 1 5.1 2.13 8.44 8.44 0 0 1 2 6v.7h-11.6a6 6 0 0 0 1.45 3.93 4.3 4.3 0 0 0 3.25 1.36 4 4 0 0 0 2.48-.76 5.09 5.09 0 0 0 1.6-2.46zm-8.66-4.26h8.69a5.3 5.3 0 0 0 -1-2.95 4 4 0 0 0 -3.26-1.52 4.21 4.21 0 0 0 -3.06 1.21 4.88 4.88 0 0 0 -1.37 3.26z"/><path d="m272.65 52.17 2.68-.23a5.89 5.89 0 0 0 .89 2.64 4.75 4.75 0 0 0 2.16 1.67 8.26 8.26 0 0 0 3.3.64 7.74 7.74 0 0 0 2.87-.49 4 4 0 0 0 1.85-1.32 3.12 3.12 0 0 0 .61-1.84 2.84 2.84 0 0 0 -.59-1.77 4.32 4.32 0 0 0 -1.93-1.26 35.23 35.23 0 0 0 -3.83-1.05 19.28 19.28 0 0 1 -4.14-1.34 5.74 5.74 0 0 1 -2.29-2 4.86 4.86 0 0 1 -.76-2.67 5.48 5.48 0 0 1 .92-3 5.73 5.73 0 0 1 2.7-2.15 10.2 10.2 0 0 1 3.94-.73 10.79 10.79 0 0 1 4.21.77 6 6 0 0 1 2.81 2.26 6.54 6.54 0 0 1 1.05 3.38l-2.72.21a4.45 4.45 0 0 0 -1.49-3.08 5.79 5.79 0 0 0 -3.74-1 6 6 0 0 0 -3.76 1 2.83 2.83 0 0 0 -1.18 2.19 2.43 2.43 0 0 0 .84 1.9c.54.5 2 1 4.28 1.53a27.8 27.8 0 0 1 4.75 1.37 6.54 6.54 0 0 1 2.77 2.2 5.29 5.29 0 0 1 .9 3 5.91 5.91 0 0 1 -1 3.24 6.48 6.48 0 0 1 -2.83 2.35 9.8 9.8 0 0 1 -4.13.85 12.46 12.46 0 0 1 -4.89-.85 6.89 6.89 0 0 1 -3.07-2.59 7.23 7.23 0 0 1 -1.18-3.83z"/><path d="m296.29 59.07v-15.56h2.36v2.19a5.47 5.47 0 0 1 2-1.84 5.41 5.41 0 0 1 2.77-.7 5.1 5.1 0 0 1 2.83.72 3.83 3.83 0 0 1 1.56 2 5.58 5.58 0 0 1 4.81-2.73 4.76 4.76 0 0 1 3.56 1.28 5.49 5.49 0 0 1 1.24 4v10.64h-2.62v-9.8a7.24 7.24 0 0 0 -.26-2.28 2.2 2.2 0 0 0 -.93-1.12 2.91 2.91 0 0 0 -1.58-.42 3.66 3.66 0 0 0 -2.72 1.09 4.77 4.77 0 0 0 -1.14 3.46v9h-2.64v-10a4.42 4.42 0 0 0 -.64-2.63 2.43 2.43 0 0 0 -2.11-.88 3.84 3.84 0 0 0 -2.06.58 3.34 3.34 0 0 0 -1.37 1.72 9.71 9.71 0 0 0 -.42 3.25v8.07z"/><path d="m334.43 57.15a9.62 9.62 0 0 1 -2.82 1.76 8.15 8.15 0 0 1 -2.9.51 5.66 5.66 0 0 1 -3.94-1.25 4.13 4.13 0 0 1 -1.38-3.2 4.24 4.24 0 0 1 .52-2.09 4.34 4.34 0 0 1 1.36-1.52 6.46 6.46 0 0 1 1.9-.86 18.45 18.45 0 0 1 2.34-.4 23.91 23.91 0 0 0 4.7-.9c0-.37 0-.59 0-.69a2.9 2.9 0 0 0 -.75-2.27 4.37 4.37 0 0 0 -3-.9 4.62 4.62 0 0 0 -2.75.66 3.94 3.94 0 0 0 -1.31 2.3l-2.56-.3a6.44 6.44 0 0 1 1.16-2.72 5.09 5.09 0 0 1 2.33-1.57 10.26 10.26 0 0 1 3.53-.55 9.41 9.41 0 0 1 3.24.47 4.27 4.27 0 0 1 1.83 1.18 4.17 4.17 0 0 1 .82 1.79 14.72 14.72 0 0 1 .13 2.44v3.51a35.66 35.66 0 0 0 .17 4.65 5.89 5.89 0 0 0 .66 1.87h-2.71a5.75 5.75 0 0 1 -.57-1.92zm-.22-5.89a19.6 19.6 0 0 1 -4.3 1 9.32 9.32 0 0 0 -2.3.53 2.26 2.26 0 0 0 -1 .85 2.32 2.32 0 0 0 .43 3 3.43 3.43 0 0 0 2.34.71 5.53 5.53 0 0 0 2.71-.67 4.07 4.07 0 0 0 1.74-1.82 6.47 6.47 0 0 0 .42-2.64z"/><path d="m343.94 59.07v-15.56h2.37v2.36a6.53 6.53 0 0 1 1.69-2.18 2.92 2.92 0 0 1 1.69-.53 5.11 5.11 0 0 1 2.71.85l-.91 2.45a3.77 3.77 0 0 0 -1.93-.57 2.51 2.51 0 0 0 -1.56.52 2.84 2.84 0 0 0 -1 1.44 10.35 10.35 0 0 0 -.44 3.07v8.15z"/><path d="m362.71 56.71.38 2.33a9.43 9.43 0 0 1 -2 .23 4.49 4.49 0 0 1 -2.22-.45 2.56 2.56 0 0 1 -1.12-1.19 9.65 9.65 0 0 1 -.32-3.12v-8.95h-1.93v-2.05h1.93v-3.85l2.62-1.58v5.43h2.65v2.05h-2.65v9.1a4.66 4.66 0 0 0 .14 1.45 1 1 0 0 0 .45.51 1.76 1.76 0 0 0 .91.19 8.21 8.21 0 0 0 1.16-.1z"/><path d="m380.11 59.07v-21.48h14.49v2.54h-11.6v6.65h10v2.53h-10v9.76z"/><path d="m411.6 54.06 2.73.34a6.66 6.66 0 0 1 -2.39 3.7 8.09 8.09 0 0 1 -9.87-.78 8.23 8.23 0 0 1 -2-5.9 8.62 8.62 0 0 1 2-6.09 6.84 6.84 0 0 1 5.25-2.17 6.65 6.65 0 0 1 5.1 2.13 8.44 8.44 0 0 1 2 6v.7h-11.62a6 6 0 0 0 1.45 3.93 4.3 4.3 0 0 0 3.25 1.36 4 4 0 0 0 2.48-.76 5.09 5.09 0 0 0 1.62-2.46zm-8.66-4.26h8.69a5.3 5.3 0 0 0 -1-2.95 4 4 0 0 0 -3.26-1.52 4.21 4.21 0 0 0 -3.06 1.21 4.88 4.88 0 0 0 -1.37 3.26z"/><path d="m420.64 59.07v-15.56h2.36v2.21a5.6 5.6 0 0 1 5-2.56 6.47 6.47 0 0 1 2.59.51 4.07 4.07 0 0 1 1.72 1.33 5 5 0 0 1 .82 1.95 14.72 14.72 0 0 1 .15 2.56v9.57h-2.64v-9.47a6.94 6.94 0 0 0 -.31-2.41 2.51 2.51 0 0 0 -1.09-1.28 3.52 3.52 0 0 0 -1.84-.47 4.22 4.22 0 0 0 -2.9 1.07q-1.23 1.06-1.23 4v8.5z"/><path d="m450.47 53.37 2.59.34a6.71 6.71 0 0 1 -2.17 4.2 6.39 6.39 0 0 1 -4.3 1.51 6.64 6.64 0 0 1 -5.13-2.09 8.42 8.42 0 0 1 -1.94-6 10.78 10.78 0 0 1 .83-4.41 5.81 5.81 0 0 1 2.54-2.83 7.56 7.56 0 0 1 3.71-1 6.48 6.48 0 0 1 4.15 1.28 6 6 0 0 1 2.07 3.64l-2.57.4a4.22 4.22 0 0 0 -1.25-2.29 3.34 3.34 0 0 0 -2.25-.79 4.1 4.1 0 0 0 -3.24 1.43 6.78 6.78 0 0 0 -1.24 4.52 7 7 0 0 0 1.2 4.55 3.89 3.89 0 0 0 3.13 1.42 3.65 3.65 0 0 0 2.59-1 4.65 4.65 0 0 0 1.28-2.88z"/><path d="m469 54.06 2.72.34a6.59 6.59 0 0 1 -2.38 3.7 7.2 7.2 0 0 1 -4.46 1.32 7.12 7.12 0 0 1 -5.41-2.1 8.23 8.23 0 0 1 -2-5.9 8.62 8.62 0 0 1 2-6.09 6.84 6.84 0 0 1 5.25-2.17 6.65 6.65 0 0 1 5.1 2.13 8.44 8.44 0 0 1 2 6v.7h-11.6a6 6 0 0 0 1.45 3.93 4.3 4.3 0 0 0 3.25 1.36 4 4 0 0 0 2.47-.76 5 5 0 0 0 1.61-2.46zm-8.66-4.26h8.66a5.3 5.3 0 0 0 -1-2.95 4.05 4.05 0 0 0 -3.26-1.52 4.21 4.21 0 0 0 -3.06 1.21 4.88 4.88 0 0 0 -1.37 3.26z"/></g></svg>