<svg viewBox="0 0 60 60" xmlns="http://www.w3.org/2000/svg"><path d="m60 30a30 30 0 1 1 -30-30 30 30 0 0 1 30 30z" fill="#ff6969"/><g fill="#fff"><path d="m17 29.19a10.5 10.5 0 0 0 -2.47-.94 5.4 5.4 0 0 1 -2-.82.88.88 0 0 1 -.29-.67.81.81 0 0 1 .31-.67 2.14 2.14 0 0 1 1.45-.43 1.94 1.94 0 0 1 1.33.39 2.2 2.2 0 0 1 .57 1.33.16.16 0 0 0 .16.14l2.25-.12a.14.14 0 0 0 .15-.16 4.11 4.11 0 0 0 -1.16-2.93 4.43 4.43 0 0 0 -3.3-1.11 5.25 5.25 0 0 0 -2.27.46 3.34 3.34 0 0 0 -1.43 1.34 3.86 3.86 0 0 0 -.5 1.91 3.74 3.74 0 0 0 1.07 2.69 5.89 5.89 0 0 0 2.61 1.31c.93.27 1.53.46 1.79.56a1.57 1.57 0 0 1 .73.53 1.1 1.1 0 0 1 .21.68 1.49 1.49 0 0 1 -.51 1.13 2.14 2.14 0 0 1 -1.53.49 2.1 2.1 0 0 1 -1.52-.55 3.07 3.07 0 0 1 -.75-1.75.16.16 0 0 0 -.17-.13l-2.2.24a.17.17 0 0 0 -.14.17 5.43 5.43 0 0 0 1.4 3.38 4.6 4.6 0 0 0 3.37 1.17 5.79 5.79 0 0 0 2.49-.48 3.53 3.53 0 0 0 1.58-1.5 4.35 4.35 0 0 0 .55-2.14 4.4 4.4 0 0 0 -.46-2.12 3.47 3.47 0 0 0 -1.32-1.4z"/><path d="m28.6 23.42h-8.88a.16.16 0 0 0 -.15.16v2.17a.16.16 0 0 0 .15.16h3.16v10.51a.16.16 0 0 0 .16.15h2.25a.16.16 0 0 0 .16-.15v-10.51h3.15a.16.16 0 0 0 .15-.16v-2.17a.16.16 0 0 0 -.15-.16z"/><path d="m34.71 23.2a5.68 5.68 0 0 0 -2.47.52 4.65 4.65 0 0 0 -1.5 1.2 6.07 6.07 0 0 0 -1.06 1.81 9.3 9.3 0 0 0 -.53 3.35 7.43 7.43 0 0 0 1.51 4.92 5.1 5.1 0 0 0 4.08 1.8 5 5 0 0 0 4-1.81 7.56 7.56 0 0 0 1.51-5 7.53 7.53 0 0 0 -1.52-5 5.06 5.06 0 0 0 -4.02-1.79zm2.94 6.8a5.34 5.34 0 0 1 -.83 3.26 2.5 2.5 0 0 1 -2.09 1 2.56 2.56 0 0 1 -2.1-1.06 5.19 5.19 0 0 1 -.84-3.2 5.26 5.26 0 0 1 .82-3.22 2.69 2.69 0 0 1 4.23 0 5.22 5.22 0 0 1 .81 3.22z"/><path d="m49.93 24.94a3.12 3.12 0 0 0 -1.69-1.32 11.6 11.6 0 0 0 -2.72-.2h-3.62a.16.16 0 0 0 -.16.16v12.84a.16.16 0 0 0 .16.15h2.25a.16.16 0 0 0 .16-.15v-4.69h1.31a11.11 11.11 0 0 0 2.38-.19 3.24 3.24 0 0 0 1.23-.64 3.58 3.58 0 0 0 1-1.32 4.87 4.87 0 0 0 .39-2 4.57 4.57 0 0 0 -.69-2.64zm-2 2.62a1.82 1.82 0 0 1 -.23.92 1.36 1.36 0 0 1 -.64.57 5.06 5.06 0 0 1 -1.71.19h-1.04v-3.33h.93a9.1 9.1 0 0 1 1.59.08 1.41 1.41 0 0 1 .82.51 1.71 1.71 0 0 1 .35 1.06z"/></g></svg>