<svg viewBox="0 0 60 60" xmlns="http://www.w3.org/2000/svg"><circle cx="30" cy="30" fill="#d2d2d2" r="30"/><g fill="#fff"><path d="m29.8 47.49c-4.36 0-8.73 0-13.09 0-2.92 0-4.22-1.27-4.23-4.15q0-7.06 0-14.13c0-2.88 1-4 3.88-4.27 1-.09 1.13-.53 1.11-1.33 0-1.38 0-2.77 0-4.15-.11-7.94 9-15 17.76-10.84 4.82 2.32 7.19 6.29 7.3 11.62v3.53c0 .76.27 1.06 1.07 1.16 2.86.38 3.92 1.64 3.93 4.57q0 6.75 0 13.5c0 3-1.44 4.48-4.42 4.49-4.45.02-8.88 0-13.31 0zm.16-20c-4.22 0-8.44 0-12.66 0-2 0-2.2.24-2.21 2.12q0 6.54 0 13.09c0 1.87.24 2.11 2.21 2.12q12.66 0 25.34 0c1.94 0 2.26-.34 2.27-2.33 0-4.16 0-8.31 0-12.47 0-2.3-.23-2.53-2.48-2.54-4.16.04-8.31.05-12.43.05zm.04-2.58h8.3c1.54 0 1.61 0 1.58-1.43a50.41 50.41 0 0 0 -.34-5.36 9.41 9.41 0 0 0 -8.81-8 9.75 9.75 0 0 0 -10.07 6.44c-.91 2.28-.55 4.64-.59 7 0 1.32 0 1.36 1.42 1.37 2.87 0 5.71-.02 8.51-.02z"/><path d="m28.32 36.1c0-.76-.05-1.52 0-2.27a1.84 1.84 0 0 1 1.46-1.77 1.86 1.86 0 0 1 1.82 1.66 37.32 37.32 0 0 1 0 5 1.85 1.85 0 0 1 -1.81 1.66c-.78-.06-1.4-.87-1.49-2 0-.14 0-.27 0-.41v-1.87z"/></g></svg>