<svg xmlns="http://www.w3.org/2000/svg" viewBox="0 0 34.89 39.57"><defs><style>.cls-1{fill:#0071b7;}</style></defs><g id="圖層_2" data-name="圖層 2"><g id="Layer_1" data-name="Layer 1"><path class="cls-1" d="M23.09.5H11.8V3.32H23.09Zm7.59,11.06,2.68-2.67A20.89,20.89,0,0,0,30.7,6.23L28,8.91a16.94,16.94,0,1,0,2.65,2.65ZM17.45,35.3A13.18,13.18,0,1,1,30.63,22.12,13.17,13.17,0,0,1,17.45,35.3Z"/><path class="cls-1" d="M17.45,39.57a17.45,17.45,0,1,1,0-34.89A17.27,17.27,0,0,1,28,8.24l2.36-2.36a.48.48,0,0,1,.67,0,21.71,21.71,0,0,1,2.72,2.71.51.51,0,0,1,0,.68L31.35,11.6a17.26,17.26,0,0,1,3.54,10.52A17.47,17.47,0,0,1,17.45,39.57Zm0-33.89A16.45,16.45,0,1,0,33.89,22.12a16.26,16.26,0,0,0-3.6-10.25.49.49,0,0,1,0-.66l2.34-2.35a19.86,19.86,0,0,0-1.94-1.95L28.38,9.26a.52.52,0,0,1-.67,0A16.22,16.22,0,0,0,17.45,5.68Zm0,30.12A13.68,13.68,0,1,1,31.13,22.12,13.69,13.69,0,0,1,17.45,35.8Zm0-26.36A12.68,12.68,0,1,0,30.13,22.12,12.69,12.69,0,0,0,17.45,9.44Zm5.64-5.62H11.8a.5.5,0,0,1-.5-.5V.5a.5.5,0,0,1,.5-.5H23.09a.5.5,0,0,1,.5.5V3.32A.5.5,0,0,1,23.09,3.82Zm-10.79-1H22.59V1H12.3Z"/><path class="cls-1" d="M16.54,23.45h0a1.23,1.23,0,0,0,1.72,0l4.88-5a1.22,1.22,0,0,0,0-1.72h0a1.23,1.23,0,0,0-1.72,0l-4.88,5A1.22,1.22,0,0,0,16.54,23.45Z"/><path class="cls-1" d="M17.39,24.29a1.7,1.7,0,0,1-1.2-.49h0a1.7,1.7,0,0,1,0-2.42l4.88-5a1.71,1.71,0,1,1,2.46,2.39l-4.88,5a1.72,1.72,0,0,1-1.21.52Zm4.88-7.46a.7.7,0,0,0-.52.22l-4.88,5a.72.72,0,0,0,0,1h0a.85.85,0,0,0,.51.2.68.68,0,0,0,.5-.22l4.88-5a.71.71,0,0,0,0-1A.74.74,0,0,0,22.27,16.83Z"/></g></g></svg>