<svg xmlns="http://www.w3.org/2000/svg" viewBox="0 0 40 39.9"><defs><style>.cls-1{fill:#0071b7;fill-rule:evenodd;}</style></defs><g id="圖層_2" data-name="圖層 2"><g id="Layer_1" data-name="Layer 1"><path class="cls-1" d="M40,35.36a6,6,0,0,0-2.39-5,17.35,17.35,0,0,0-6.11-3.26,53.75,53.75,0,0,0-5.28-1.37A24.8,24.8,0,0,0,20.53,25a16.22,16.22,0,0,0-3.43.27c-1.09.31-2.32-.29-3.29.56-1.64-.19-3,.7-4.56,1.05a19.49,19.49,0,0,0-6.54,3.22A6,6,0,0,0,.1,34.35a51.32,51.32,0,0,0,0,5.55H40C40,38.27,40,36.81,40,35.36Z"/><path class="cls-1" d="M27.61,3.62C25.56,1.5,23.24,0,20.18,0A10.15,10.15,0,0,0,13.1,3a8.92,8.92,0,0,0-3,6.83,9,9,0,0,0,2.45,6.66A10.78,10.78,0,0,0,19.82,20a10.73,10.73,0,0,0,7.05-2.92,9,9,0,0,0,3.12-7A8.81,8.81,0,0,0,27.61,3.62Z"/></g></g></svg>