<svg viewBox="0 0 40 39.9" xmlns="http://www.w3.org/2000/svg"><g fill="#0071b7" fill-rule="evenodd"><path d="m40 35.36a6 6 0 0 0 -2.39-5 17.35 17.35 0 0 0 -6.11-3.26 53.75 53.75 0 0 0 -5.28-1.37 24.8 24.8 0 0 0 -5.69-.73 16.22 16.22 0 0 0 -3.43.27c-1.09.31-2.32-.29-3.29.56-1.64-.19-3 .7-4.56 1.05a19.49 19.49 0 0 0 -6.54 3.22 6 6 0 0 0 -2.61 4.25 51.32 51.32 0 0 0 0 5.55h39.9c0-1.63 0-3.09 0-4.54z"/><path d="m27.61 3.62c-2.05-2.12-4.37-3.62-7.43-3.62a10.15 10.15 0 0 0 -7.08 3 8.92 8.92 0 0 0 -3 6.83 9 9 0 0 0 2.45 6.66 10.78 10.78 0 0 0 7.27 3.51 10.73 10.73 0 0 0 7.05-2.92 9 9 0 0 0 3.12-7 8.81 8.81 0 0 0 -2.38-6.46z"/></g></svg>